<svg xmlns="http://www.w3.org/2000/svg" width="120" height="33" viewBox="0 0 120 33" fill="none">
<path d="M65.6647 28.3213C65.1221 28.3213 64.662 28.22 64.2786 28.0232C63.8952 27.8265 63.559 27.5404 63.2582 27.1589L63.8953 26.527C64.1135 26.831 64.3612 27.0576 64.6443 27.2125C64.9274 27.3675 65.2813 27.445 65.6942 27.445C66.1071 27.445 66.4315 27.3556 66.6792 27.1768C66.9269 26.998 67.0508 26.7535 67.0508 26.4436C67.0508 26.1873 66.9918 25.9786 66.8738 25.8177C66.7559 25.6627 66.5966 25.5256 66.3961 25.4243C66.1956 25.3229 65.9773 25.2275 65.7355 25.15C65.4996 25.0666 65.2636 24.9772 65.0218 24.8818C64.7859 24.7864 64.5676 24.6672 64.3671 24.5241C64.1666 24.3811 64.0073 24.1963 63.8894 23.9638C63.7655 23.7313 63.7065 23.4392 63.7065 23.0935C63.7065 22.706 63.8009 22.3722 63.9896 22.098C64.1784 21.8238 64.432 21.6152 64.7623 21.4662C65.0867 21.3171 65.4583 21.2456 65.8652 21.2456C66.3135 21.2456 66.7146 21.335 67.0744 21.5079C67.4283 21.6807 67.7232 21.9132 67.9473 22.1934L67.3162 22.8253C67.1098 22.5868 66.8915 22.408 66.6556 22.2888C66.4197 22.1696 66.1543 22.1099 65.8476 22.1099C65.476 22.1099 65.187 22.1934 64.9687 22.3543C64.7505 22.5153 64.6384 22.7418 64.6384 23.0339C64.6384 23.2664 64.6974 23.4512 64.8213 23.5942C64.9451 23.7373 65.1044 23.8565 65.299 23.9578C65.4996 24.0592 65.7178 24.1486 65.9596 24.2321C66.2015 24.3155 66.4374 24.4049 66.6792 24.5063C66.9151 24.6016 67.1333 24.7328 67.3339 24.8818C67.5285 25.0368 67.6878 25.2275 67.8116 25.4719C67.9355 25.7104 67.9945 26.0144 67.9945 26.378C67.9945 26.986 67.7822 27.4629 67.3634 27.8027C66.9446 28.1484 66.3784 28.3153 65.6647 28.3153V28.3213Z" fill="white"/>
<path d="M69.2451 28.2197V21.3467H70.1769V28.2197H69.2451ZM69.8703 25.5492V24.7385H71.74C71.9995 24.7385 72.2295 24.6848 72.4301 24.5835C72.6306 24.4762 72.7898 24.3272 72.9019 24.1364C73.0199 23.9457 73.073 23.7191 73.073 23.4509C73.073 23.1827 73.014 22.9561 72.9019 22.7654C72.784 22.5746 72.6306 22.4256 72.4301 22.3183C72.2295 22.211 71.9995 22.1633 71.74 22.1633H69.8703V21.3526H71.799C72.2177 21.3526 72.6011 21.4361 72.9314 21.609C73.2617 21.7818 73.5271 22.0203 73.7218 22.3362C73.9164 22.6521 74.0167 23.0217 74.0167 23.4509C74.0167 23.8801 73.9164 24.2437 73.7218 24.5537C73.5271 24.8696 73.2617 25.1081 72.9314 25.2869C72.6011 25.4598 72.2236 25.5492 71.799 25.5492H69.8703Z" fill="white"/>
<path d="M78.3636 28.3212C77.8741 28.3212 77.4199 28.2318 77.0011 28.047C76.5823 27.8622 76.2107 27.6118 75.8922 27.284C75.5737 26.9561 75.3319 26.5806 75.155 26.1514C74.978 25.7222 74.8895 25.2632 74.8895 24.7744C74.8895 24.2856 74.978 23.8206 75.155 23.3915C75.3319 22.9682 75.5737 22.5927 75.8863 22.2708C76.1989 21.9489 76.5646 21.6985 76.9834 21.5197C77.4022 21.3409 77.8563 21.2515 78.34 21.2515C78.8237 21.2515 79.2837 21.3409 79.7024 21.5197C80.1212 21.6985 80.4869 21.9489 80.8054 22.2708C81.1239 22.5927 81.3716 22.9682 81.5486 23.3974C81.7255 23.8266 81.8141 24.2916 81.8141 24.7804C81.8141 25.2692 81.7255 25.7282 81.5486 26.1574C81.3716 26.5865 81.1239 26.9621 80.8113 27.284C80.4987 27.6059 80.133 27.8622 79.7143 28.041C79.2955 28.2258 78.8473 28.3152 78.3636 28.3152V28.3212ZM78.3459 27.433C78.8414 27.433 79.2719 27.3197 79.6494 27.0932C80.021 26.8667 80.3159 26.5508 80.5341 26.1514C80.7523 25.752 80.8644 25.293 80.8644 24.7804C80.8644 24.3989 80.7995 24.0472 80.6757 23.7253C80.5518 23.4034 80.3748 23.1292 80.1507 22.8907C79.9266 22.6523 79.6612 22.4675 79.3604 22.3423C79.0596 22.2171 78.7175 22.1516 78.3518 22.1516C77.8623 22.1516 77.4316 22.2648 77.0601 22.4854C76.6885 22.7119 76.3936 23.0219 76.1812 23.4153C75.9689 23.8087 75.8569 24.2677 75.8569 24.7804C75.8569 25.1619 75.9158 25.5195 76.0397 25.8474C76.1635 26.1752 76.3346 26.4554 76.5528 26.6879C76.7711 26.9204 77.0365 27.1051 77.3432 27.2363C77.6499 27.3674 77.9861 27.433 78.3459 27.433Z" fill="white"/>
<path d="M83.0943 28.2197V21.3467H84.0263V28.2197H83.0943ZM83.7195 25.2273V24.4464H85.5775C85.9786 24.4464 86.2911 24.345 86.5094 24.1424C86.7276 23.9397 86.8338 23.6595 86.8338 23.3078C86.8338 22.98 86.7276 22.7058 86.5094 22.4852C86.297 22.2706 85.9845 22.1574 85.5834 22.1574H83.7136V21.3467H85.6128C86.0493 21.3467 86.4268 21.4301 86.7512 21.597C87.0756 21.7639 87.3234 21.9964 87.5003 22.2825C87.6773 22.5746 87.7657 22.9085 87.7657 23.284C87.7657 23.6595 87.6773 24.0112 87.5003 24.3033C87.3234 24.5954 87.0756 24.8219 86.7512 24.9829C86.4268 25.1438 86.0493 25.2273 85.6128 25.2273H83.7136H83.7195ZM87.052 28.2197L84.5571 25.1379L85.4359 24.8338L88.2258 28.2197H87.0461H87.052Z" fill="white"/>
<path d="M88.3079 22.2045V21.3521H93.8994V22.2045H88.3079ZM90.6436 28.2251V21.5547H91.5755V28.2251H90.6436Z" fill="white"/>
<path d="M96.4892 28.3213C95.9466 28.3213 95.4865 28.22 95.1032 28.0232C94.7198 27.8265 94.3776 27.5404 94.0827 27.1589L94.7139 26.527C94.9321 26.831 95.1857 27.0576 95.4688 27.2125C95.752 27.3675 96.0999 27.445 96.5187 27.445C96.9374 27.445 97.256 27.3556 97.5037 27.1768C97.7514 26.998 97.8753 26.7535 97.8753 26.4436C97.8753 26.1873 97.8163 25.9786 97.6983 25.8177C97.5803 25.6627 97.4211 25.5256 97.2206 25.4243C97.0201 25.3229 96.8018 25.2275 96.5659 25.15C96.33 25.0666 96.094 24.9772 95.8522 24.8818C95.6162 24.7864 95.398 24.6672 95.1975 24.5241C94.9969 24.3811 94.8377 24.1963 94.7198 23.9638C94.5959 23.7313 94.5369 23.4392 94.5369 23.0935C94.5369 22.706 94.6312 22.3722 94.82 22.098C95.0087 21.8238 95.2624 21.6152 95.5927 21.4662C95.9171 21.3171 96.2887 21.2456 96.6956 21.2456C97.1439 21.2456 97.545 21.335 97.9048 21.5079C98.2587 21.6807 98.5536 21.9132 98.7718 22.1934L98.1407 22.8253C97.9342 22.5868 97.716 22.408 97.486 22.2888C97.2501 22.1696 96.9846 22.1099 96.6779 22.1099C96.3063 22.1099 96.0173 22.1934 95.7991 22.3543C95.5809 22.5153 95.4747 22.7418 95.4747 23.0339C95.4747 23.2664 95.5337 23.4512 95.6576 23.5942C95.7814 23.7373 95.9407 23.8565 96.1353 23.9578C96.33 24.0592 96.5541 24.1486 96.7959 24.2321C97.0378 24.3155 97.2737 24.4049 97.5155 24.5063C97.7514 24.6016 97.9697 24.7328 98.1702 24.8818C98.3648 25.0368 98.5241 25.2275 98.6479 25.4719C98.7718 25.7104 98.8308 26.0144 98.8308 26.378C98.8308 26.986 98.6185 27.4629 98.1997 27.8027C97.7809 28.1484 97.2147 28.3153 96.501 28.3153L96.4892 28.3213Z" fill="white"/>
<path d="M52.0281 13.6862L53.19 16.017C53.19 16.017 51.8511 17.1257 49.25 17.1257C45.8585 17.1257 42.7443 14.3598 42.7443 10.9263C42.7443 7.49278 45.8467 4.6792 49.25 4.6792C51.857 4.6792 53.19 5.78794 53.19 5.78794L52.0281 8.11869C52.0281 8.11869 51.0667 7.37357 49.6688 7.37357C46.9202 7.37357 45.7111 9.293 45.7111 10.8965C45.7111 12.5 46.9202 14.4314 49.6688 14.4314C51.0667 14.4314 52.0281 13.6862 52.0281 13.6862Z" fill="white"/>
<path d="M56.9705 16.9049H54.2337V4.89355H56.9705V9.68022H60.8397V4.89355H63.5764V16.9049H60.8397V12.0885H56.9705V16.9049Z" fill="white"/>
<path d="M69.6166 4.89355C71.8402 4.89355 73.5271 6.10363 73.5271 8.45822C73.5271 10.2644 72.5362 11.4745 71.0676 11.9394L75.1964 16.9049H71.7164L68.0477 12.16V16.9049H65.3109V4.89355H69.6048H69.6166ZM68.378 10.2227C69.4102 10.2227 70.6488 10.1511 70.6488 8.64898C70.6488 7.14681 69.4102 7.07528 68.378 7.07528H68.0595V10.2167H68.378V10.2227Z" fill="white"/>
<path d="M81.2474 4.6792C84.5799 4.6792 87.2872 7.38549 87.2872 10.8965C87.2872 14.4075 84.6979 17.1257 81.2474 17.1257C77.797 17.1257 75.1959 14.4016 75.1959 10.8965C75.1959 7.39145 77.9444 4.6792 81.2474 4.6792ZM81.2474 14.4731C83.4298 14.4731 84.3322 12.6848 84.3322 10.8905C84.3322 9.09629 83.3708 7.30799 81.2474 7.30799C79.1241 7.30799 78.145 9.09629 78.145 10.8905C78.145 12.6848 79.0002 14.4731 81.2474 14.4731Z" fill="white"/>
<path d="M91.2279 16.9049H88.4911V4.89355H91.2279L95.9995 12.3448H96.029V4.89355H98.7658V16.9049H96.029L91.2574 9.4537H91.2279V16.9049Z" fill="white"/>
<path d="M109.73 12.6369C109.73 15.6054 108.102 17.1195 105.047 17.1195C101.992 17.1195 100.364 15.6054 100.364 12.6369V4.89355H103.1V11.8381C103.1 13.8469 103.714 14.4311 105.053 14.4311C106.392 14.4311 106.999 13.8469 106.999 11.8381V4.89355H109.736V12.6369H109.73Z" fill="white"/>
<path d="M119.191 5.81178L118.082 7.9935C118.082 7.9935 116.891 7.16493 115.652 7.16493C114.72 7.16493 114.225 7.58816 114.225 8.24386C114.225 8.89957 115.357 9.39434 116.726 9.97851C118.065 10.5448 119.533 11.6834 119.533 13.2511C119.533 16.1183 117.351 17.1257 115.009 17.1257C112.202 17.1257 110.497 15.5401 110.497 15.5401L111.866 13.2392C111.866 13.2392 113.464 14.5923 114.803 14.5923C115.399 14.5923 116.531 14.5327 116.531 13.412C116.531 12.5358 115.251 12.1483 113.824 11.433C112.385 10.7177 111.541 9.59701 111.541 8.3452C111.541 6.10387 113.517 4.6792 115.458 4.6792C117.64 4.6792 119.179 5.81178 119.179 5.81178H119.191Z" fill="white"/>
<path d="M29.6031 0H3.25582C1.45687 0 0 1.4664 0 3.27258V29.7274C0 31.5336 1.45687 33 3.25582 33H29.6031C31.4021 33 32.8589 31.5336 32.8589 29.7274V3.27258C32.8589 1.4664 31.4021 0 29.6031 0Z" fill="url(#paint0_radial_2045_5906)"/>
<path d="M32.8594 29.7221V23.0995L23.7231 7.41016L8.69446 16.1192L13.0945 23.7731L9.10144 26.0919L13.0709 32.9947H29.5859C31.3849 32.9947 32.8476 31.5283 32.8476 29.7161L32.8594 29.7221Z" fill="#102D69"/>
<path fill-rule="evenodd" clip-rule="evenodd" d="M21.7588 19.0336L20.3137 16.5181L17.807 17.9725L10.2927 22.33C8.91251 23.1288 8.43477 24.9052 9.23102 26.2941L10.6761 28.8096L13.1828 27.3551L20.6971 22.9977C22.0773 22.1989 22.5551 20.4225 21.7588 19.0336Z" fill="#D7D8D8"/>
<path fill-rule="evenodd" clip-rule="evenodd" d="M23.9171 7.74379L22.183 4.72754L19.1749 6.46814L10.1624 11.6959C8.50503 12.6556 7.93293 14.7897 8.89433 16.4528L10.6284 19.469L13.6365 17.7284L22.649 12.5007C24.3064 11.5409 24.8785 9.40691 23.9171 7.74379Z" fill="white"/>
<path fill-rule="evenodd" clip-rule="evenodd" d="M17.7186 15.356L10.629 19.469L13.2301 20.6314L20.3256 16.5183L17.7245 15.356H17.7186Z" fill="#B0B0AF"/>
<defs>
<radialGradient id="paint0_radial_2045_5906" cx="0" cy="0" r="1" gradientUnits="userSpaceOnUse" gradientTransform="translate(0.269548 0.999062) scale(42.0542 42.2276)">
<stop stop-color="#164194"/>
<stop offset="0.62" stop-color="#14387F"/>
</radialGradient>
</defs>
</svg>