<svg width="360" height="113" viewBox="0 0 360 113" fill="none" xmlns="http://www.w3.org/2000/svg">
<path d="M200.364 87.0002C198.774 87.0002 197.416 86.7089 196.295 86.1314C195.169 85.5539 194.171 84.7158 193.301 83.6171L195.163 81.7671C195.801 82.6512 196.542 83.3207 197.375 83.7755C198.209 84.2303 199.237 84.4552 200.456 84.4552C201.676 84.4552 202.622 84.1946 203.347 83.6733C204.073 83.152 204.438 82.4417 204.438 81.5372C204.438 80.786 204.263 80.1778 203.913 79.7179C203.563 79.258 203.095 78.8747 202.504 78.5783C201.912 78.2819 201.269 78.011 200.57 77.7708C199.87 77.5307 199.176 77.27 198.476 76.989C197.777 76.7079 197.139 76.3655 196.557 75.9464C195.976 75.5325 195.508 74.9908 195.148 74.3162C194.788 73.6417 194.608 72.7934 194.608 71.7764C194.608 70.6419 194.886 69.6709 195.436 68.8737C195.986 68.0765 196.743 67.4581 197.705 67.0238C198.666 66.5894 199.747 66.3748 200.945 66.3748C202.262 66.3748 203.445 66.6303 204.494 67.1413C205.539 67.6523 206.392 68.3218 207.051 69.1497L205.189 70.9996C204.587 70.3046 203.944 69.7885 203.255 69.441C202.565 69.0935 201.778 68.9197 200.883 68.9197C199.798 68.9197 198.934 69.1548 198.296 69.6249C197.658 70.0951 197.334 70.7543 197.334 71.6026C197.334 72.2772 197.514 72.8189 197.874 73.2329C198.234 73.6468 198.702 73.9994 199.284 74.2856C199.865 74.5769 200.508 74.8375 201.218 75.0777C201.928 75.3179 202.627 75.5836 203.327 75.8698C204.026 76.156 204.664 76.5239 205.245 76.9685C205.827 77.4131 206.295 77.9855 206.655 78.6856C207.015 79.3908 207.195 80.2698 207.195 81.3277C207.195 83.1009 206.578 84.4859 205.348 85.4875C204.119 86.4891 202.457 86.9899 200.364 86.9899V87.0002Z" fill="#0C111D"/>
<path d="M210.888 86.7087V66.6608H213.62V86.7087H210.888ZM212.719 78.9103V76.5442H218.213C218.969 76.5442 219.643 76.3909 220.235 76.0843C220.826 75.7776 221.289 75.3433 221.628 74.7862C221.968 74.2292 222.138 73.5649 222.138 72.7932C222.138 72.0215 221.968 71.3572 221.628 70.8001C221.289 70.2431 220.826 69.8087 220.235 69.5021C219.643 69.1955 218.969 69.0422 218.213 69.0422H212.719V66.6761H218.388C219.628 66.6761 220.739 66.9265 221.716 67.4273C222.693 67.9281 223.47 68.6334 224.041 69.5481C224.612 70.4629 224.9 71.5463 224.9 72.7983C224.9 74.0503 224.612 75.1031 224.041 76.0178C223.47 76.9326 222.693 77.6429 221.716 78.1539C220.739 78.665 219.628 78.9205 218.388 78.9205H212.719V78.9103Z" fill="#0C111D"/>
<path d="M237.692 87.0001C236.257 87.0001 234.92 86.7344 233.68 86.208C232.441 85.6766 231.355 84.9356 230.424 83.985C229.493 83.0294 228.773 81.9307 228.259 80.6786C227.744 79.4266 227.487 78.0877 227.487 76.6619C227.487 75.2361 227.744 73.8768 228.259 72.6298C228.773 71.388 229.488 70.2944 230.409 69.3541C231.33 68.4087 232.405 67.6779 233.634 67.1566C234.863 66.6354 236.196 66.3748 237.631 66.3748C239.066 66.3748 240.398 66.6354 241.627 67.1566C242.857 67.6779 243.937 68.4087 244.868 69.3541C245.799 70.2995 246.524 71.3931 247.049 72.6452C247.574 73.8972 247.836 75.2463 247.836 76.6874C247.836 78.1286 247.574 79.4521 247.049 80.7042C246.524 81.9562 245.804 83.0549 244.884 83.9953C243.963 84.9407 242.888 85.6766 241.658 86.2029C240.429 86.7344 239.107 86.995 237.687 86.995L237.692 87.0001ZM237.636 84.399C239.092 84.399 240.362 84.0668 241.458 83.4025C242.553 82.7381 243.423 81.8234 244.061 80.6582C244.698 79.493 245.022 78.1592 245.022 76.6568C245.022 75.5427 244.837 74.5155 244.472 73.5803C244.102 72.6452 243.592 71.8326 242.929 71.1376C242.27 70.4426 241.494 69.9111 240.604 69.533C239.714 69.1599 238.721 68.9708 237.636 68.9708C236.201 68.9708 234.935 69.2979 233.84 69.952C232.744 70.6061 231.88 71.5107 231.252 72.6656C230.62 73.8205 230.306 75.1492 230.306 76.6517C230.306 77.7708 230.486 78.8031 230.846 79.7588C231.206 80.7144 231.71 81.5321 232.358 82.2117C233.006 82.8965 233.783 83.428 234.683 83.8164C235.583 84.1997 236.566 84.3939 237.636 84.3939V84.399Z" fill="#0C111D"/>
<path d="M251.591 86.7087V66.6608H254.323V86.7087H251.591ZM253.423 77.9853V75.701H258.89C260.073 75.701 260.984 75.4046 261.622 74.8067C262.26 74.2088 262.584 73.4013 262.584 72.3793C262.584 71.4185 262.27 70.6162 261.637 69.9825C261.01 69.3488 260.099 69.0269 258.921 69.0269H253.428V66.6608H259.009C260.29 66.6608 261.401 66.9061 262.352 67.3967C263.304 67.8873 264.034 68.5567 264.549 69.405C265.063 70.2533 265.32 71.2243 265.32 72.323C265.32 73.4218 265.063 74.4489 264.549 75.2973C264.034 76.1456 263.304 76.8048 262.352 77.275C261.401 77.7451 260.29 77.9802 259.009 77.9802H253.428L253.423 77.9853ZM263.222 86.7087L255.897 77.7247L258.484 76.8304L266.683 86.7087H263.222Z" fill="#0C111D"/>
<path d="M266.91 69.1497V66.6661H283.339V69.1497H266.91ZM273.772 86.714V67.2436H276.503V86.714H273.772Z" fill="#0C111D"/>
<path d="M290.957 87.0001C289.368 87.0001 288.01 86.7088 286.888 86.1314C285.762 85.5539 284.764 84.7158 283.895 83.6171L285.757 81.7671C286.394 82.6512 287.135 83.3207 287.968 83.7755C288.802 84.2303 289.83 84.4552 291.05 84.4552C292.269 84.4552 293.215 84.1946 293.94 83.6733C294.666 83.152 295.031 82.4417 295.031 81.5372C295.031 80.786 294.856 80.1778 294.506 79.7179C294.156 79.258 293.688 78.8747 293.097 78.5783C292.505 78.2819 291.862 78.011 291.163 77.7708C290.463 77.5307 289.769 77.27 289.069 76.989C288.37 76.7079 287.732 76.3655 287.151 75.9464C286.569 75.5325 286.101 74.9908 285.741 74.3162C285.381 73.6417 285.201 72.7934 285.201 71.7764C285.201 70.6419 285.479 69.6709 286.029 68.8737C286.58 68.0765 287.336 67.4581 288.298 67.0238C289.26 66.5894 290.34 66.3748 291.538 66.3748C292.855 66.3748 294.038 66.6303 295.088 67.1413C296.132 67.6523 296.986 68.3218 297.644 69.1497L295.782 70.9996C295.18 70.3046 294.537 69.7885 293.848 69.441C293.159 69.0935 292.372 68.9197 291.477 68.9197C290.391 68.9197 289.527 69.1548 288.889 69.6249C288.251 70.0951 287.927 70.7543 287.927 71.6026C287.927 72.2772 288.107 72.8189 288.467 73.2328C288.827 73.6468 289.296 73.9994 289.877 74.2856C290.458 74.5769 291.101 74.8375 291.811 75.0777C292.521 75.3179 293.22 75.5836 293.92 75.8698C294.619 76.156 295.257 76.5239 295.838 76.9685C296.42 77.4131 296.888 77.9855 297.248 78.6856C297.608 79.3908 297.788 80.2698 297.788 81.3276C297.788 83.1009 297.171 84.4858 295.941 85.4875C294.712 86.4891 293.051 86.9899 290.957 86.9899V87.0001Z" fill="#0C111D"/>
<path d="M160.283 44.2981L163.704 51.0949C163.704 51.0949 159.769 54.3246 152.115 54.3246C142.151 54.3246 133 46.2554 133 36.2289C133 26.2023 142.11 18.0053 152.115 18.0053C159.769 18.0053 163.704 21.2351 163.704 21.2351L160.283 28.0319C160.283 28.0319 157.459 25.8651 153.354 25.8651C145.273 25.8651 141.724 31.4711 141.724 36.1471C141.724 40.8231 145.273 46.47 153.354 46.47C157.459 46.47 160.283 44.3032 160.283 44.3032V44.2981Z" fill="#0C111D"/>
<path d="M174.819 53.6857H166.78V18.6389H174.819V32.6157H186.192V18.6389H194.232V53.6857H186.192V39.6271H174.819V53.6857Z" fill="#0C111D"/>
<path d="M211.973 18.6389C218.516 18.6389 223.475 22.165 223.475 29.0487C223.475 34.3174 220.569 37.8436 216.248 39.2029L228.393 53.6857H218.172L207.395 39.8366V53.6857H199.356V18.6389H211.968H211.973ZM208.337 34.1846C211.372 34.1846 215.008 33.9699 215.008 29.5955C215.008 25.221 211.372 25.0064 208.337 25.0064H207.395V34.1795H208.337V34.1846Z" fill="#0C111D"/>
<path d="M246.174 18.0052C255.968 18.0052 263.921 25.9058 263.921 36.1419C263.921 46.3779 256.308 54.3245 246.174 54.3245C236.041 54.3245 228.387 46.383 228.387 36.1419C228.387 25.9007 236.468 18.0052 246.174 18.0052ZM246.174 46.5925C252.589 46.5925 255.238 41.3698 255.238 36.1419C255.238 30.914 252.414 25.6912 246.174 25.6912C239.935 25.6912 237.065 30.914 237.065 36.1419C237.065 41.3698 239.585 46.5925 246.174 46.5925Z" fill="#0C111D"/>
<path d="M275.505 53.6857H267.465V18.6389H275.505L289.527 40.3885H289.614V18.6389H297.654V53.6857H289.614L275.592 31.936H275.505V53.6857Z" fill="#0C111D"/>
<path d="M329.891 41.2369C329.891 49.904 325.102 54.3194 316.12 54.3194C307.139 54.3194 302.35 49.904 302.35 41.2369V18.6389H310.39V38.9014C310.39 44.763 312.185 46.4648 316.12 46.4648C320.056 46.4648 321.851 44.7681 321.851 38.9014V18.6389H329.891V41.2369Z" fill="#0C111D"/>
<path d="M357.683 21.3166L354.432 27.6892C354.432 27.6892 350.924 25.2669 347.292 25.2669C344.555 25.2669 343.1 26.4985 343.1 28.4098C343.1 30.3211 346.433 31.7673 350.455 33.4639C354.39 35.1197 358.706 38.4363 358.706 43.0203C358.706 51.3911 352.292 54.3193 345.409 54.3193C337.159 54.3193 332.154 49.6893 332.154 49.6893L336.171 42.9794C336.171 42.9794 340.872 46.9297 344.807 46.9297C346.562 46.9297 349.895 46.7611 349.895 43.4904C349.895 40.9404 346.129 39.7957 341.942 37.7106C337.709 35.6307 335.23 32.3601 335.23 28.7062C335.23 22.1649 341.042 18 346.731 18C353.146 18 357.677 21.3115 357.677 21.3115L357.683 21.3166Z" fill="#0C111D"/>
<g filter="url(#filter0_d_1030_2691)">
<g clip-path="url(#clip0_1030_2691)">
<rect x="8" y="4" width="97" height="97" rx="20" fill="url(#paint0_linear_1030_2691)"/>
<path d="M104.391 91.8128V72.3463L77.5358 26.2292L33.3607 51.8284L46.2943 74.3262L34.557 81.1421L46.2249 101.432H94.7689C100.057 101.432 104.356 97.1219 104.356 91.7953L104.391 91.8128Z" fill="url(#paint1_linear_1030_2691)"/>
<path fill-rule="evenodd" clip-rule="evenodd" d="M59.5602 49.1372L38.3125 60.3812L46.3666 64.6439L67.4125 53.1062L59.5775 49.1372H59.5602Z" fill="#B0B0AF"/>
<path fill-rule="evenodd" clip-rule="evenodd" d="M71.4356 59.948L67.7945 53.6097C67.46 53.0273 66.7156 52.8279 66.1347 53.165L59.8197 56.8291L37.7321 69.6374C33.6753 71.9853 32.271 77.2068 34.6115 81.2893L38.2524 87.6275C38.587 88.21 39.3313 88.4094 39.9123 88.0723L46.2273 84.4082L68.3149 71.5999C72.3718 69.2519 73.7761 64.0305 71.4356 59.948Z" fill="#D7D8D8"/>
<path fill-rule="evenodd" clip-rule="evenodd" d="M77.7801 26.7619L73.289 18.95C72.9546 18.3684 72.2113 18.1689 71.6306 18.5049L63.8411 23.0123L37.3498 38.3788C32.4781 41.1998 30.7965 47.4725 33.6224 52.3611L38.1135 60.1729C38.4479 60.7546 39.1912 60.9541 39.772 60.6181L47.5615 56.1107L74.0527 40.7442C78.9244 37.9232 80.6061 31.6504 77.7801 26.7619Z" fill="white"/>
</g>
</g>
<defs>
<filter id="filter0_d_1030_2691" x="0.373375" y="0.180625" width="112.253" height="112.253" filterUnits="userSpaceOnUse" color-interpolation-filters="sRGB">
<feFlood flood-opacity="0" result="BackgroundImageFix"/>
<feColorMatrix in="SourceAlpha" type="matrix" values="0 0 0 0 0 0 0 0 0 0 0 0 0 0 0 0 0 0 127 0" result="hardAlpha"/>
<feOffset dy="3.80725"/>
<feGaussianBlur stdDeviation="3.81331"/>
<feComposite in2="hardAlpha" operator="out"/>
<feColorMatrix type="matrix" values="0 0 0 0 0.317647 0 0 0 0 0.333333 0 0 0 0 0.352941 0 0 0 0.25 0"/>
<feBlend mode="normal" in2="BackgroundImageFix" result="effect1_dropShadow_1030_2691"/>
<feBlend mode="normal" in="SourceGraphic" in2="effect1_dropShadow_1030_2691" result="shape"/>
</filter>
<linearGradient id="paint0_linear_1030_2691" x1="56.5" y1="4" x2="56.5" y2="101" gradientUnits="userSpaceOnUse">
<stop stop-color="#164193"/>
<stop offset="1" stop-color="#102D69"/>
</linearGradient>
<linearGradient id="paint1_linear_1030_2691" x1="68.8759" y1="26.2292" x2="68.8759" y2="101.432" gradientUnits="userSpaceOnUse">
<stop stop-color="#102D69" stop-opacity="0"/>
<stop offset="0.898177" stop-color="#102D69"/>
</linearGradient>
<clipPath id="clip0_1030_2691">
<rect x="8" y="4" width="97" height="97" rx="20" fill="white"/>
</clipPath>
</defs>
</svg>
