<svg width="113" height="113" viewBox="0 0 113 113" fill="none" xmlns="http://www.w3.org/2000/svg">
<g filter="url(#filter0_d_1030_2682)">
<g clip-path="url(#clip0_1030_2682)">
<rect x="8" y="4" width="97" height="97" rx="20" fill="url(#paint0_linear_1030_2682)"/>
<path d="M104.391 91.8128V72.3462L77.5358 26.2292L33.3607 51.8284L46.2943 74.3262L34.557 81.1421L46.2249 101.432H94.7689C100.057 101.432 104.356 97.1219 104.356 91.7953L104.391 91.8128Z" fill="url(#paint1_linear_1030_2682)"/>
<path fill-rule="evenodd" clip-rule="evenodd" d="M59.5602 49.1372L38.3125 60.3812L46.3666 64.6439L67.4125 53.1062L59.5775 49.1372H59.5602Z" fill="#B0B0AF"/>
<path fill-rule="evenodd" clip-rule="evenodd" d="M71.4356 59.948L67.7945 53.6098C67.46 53.0273 66.7156 52.8279 66.1347 53.165L59.8197 56.8291L37.7321 69.6375C33.6753 71.9854 32.271 77.2068 34.6115 81.2894L38.2524 87.6276C38.587 88.21 39.3313 88.4095 39.9123 88.0724L46.2273 84.4082L68.3149 71.5999C72.3718 69.252 73.7761 64.0305 71.4356 59.948Z" fill="#D7D8D8"/>
<path fill-rule="evenodd" clip-rule="evenodd" d="M77.7801 26.7619L73.289 18.95C72.9546 18.3684 72.2113 18.1689 71.6306 18.5049L63.8411 23.0123L37.3498 38.3788C32.4781 41.1998 30.7965 47.4725 33.6224 52.3611L38.1135 60.1729C38.4479 60.7546 39.1912 60.9541 39.772 60.6181L47.5615 56.1107L74.0527 40.7442C78.9244 37.9232 80.6061 31.6504 77.7801 26.7619Z" fill="white"/>
</g>
</g>
<defs>
<filter id="filter0_d_1030_2682" x="0.373375" y="0.180625" width="112.253" height="112.253" filterUnits="userSpaceOnUse" color-interpolation-filters="sRGB">
<feFlood flood-opacity="0" result="BackgroundImageFix"/>
<feColorMatrix in="SourceAlpha" type="matrix" values="0 0 0 0 0 0 0 0 0 0 0 0 0 0 0 0 0 0 127 0" result="hardAlpha"/>
<feOffset dy="3.80725"/>
<feGaussianBlur stdDeviation="3.81331"/>
<feComposite in2="hardAlpha" operator="out"/>
<feColorMatrix type="matrix" values="0 0 0 0 0.317647 0 0 0 0 0.333333 0 0 0 0 0.352941 0 0 0 0.25 0"/>
<feBlend mode="normal" in2="BackgroundImageFix" result="effect1_dropShadow_1030_2682"/>
<feBlend mode="normal" in="SourceGraphic" in2="effect1_dropShadow_1030_2682" result="shape"/>
</filter>
<linearGradient id="paint0_linear_1030_2682" x1="56.5" y1="4" x2="56.5" y2="101" gradientUnits="userSpaceOnUse">
<stop stop-color="#164193"/>
<stop offset="1" stop-color="#102D69"/>
</linearGradient>
<linearGradient id="paint1_linear_1030_2682" x1="68.8759" y1="26.2292" x2="68.8759" y2="101.432" gradientUnits="userSpaceOnUse">
<stop stop-color="#102D69" stop-opacity="0"/>
<stop offset="0.898177" stop-color="#102D69"/>
</linearGradient>
<clipPath id="clip0_1030_2682">
<rect x="8" y="4" width="97" height="97" rx="20" fill="white"/>
</clipPath>
</defs>
</svg>
