<svg xmlns="http://www.w3.org/2000/svg" width="26" height="26" viewBox="0 0 26 26" fill="none">
  <g clipPath="url(#clip0_1224_23267)">
    <path d="M5.41667 13H3.25L13 3.25L22.75 13H20.5833" stroke="#54565A" strokeWidth="1.5" strokeLinecap="round" strokeLinejoin="round"/>
    <path d="M5.41669 13V20.5833C5.41669 21.158 5.64496 21.7091 6.05129 22.1154C6.45762 22.5217 7.00872 22.75 7.58335 22.75H18.4167C18.9913 22.75 19.5424 22.5217 19.9488 22.1154C20.3551 21.7091 20.5834 21.158 20.5834 20.5833V13" stroke="#54565A" strokeWidth="1.5" strokeLinecap="round" strokeLinejoin="round"/>
    <path d="M9.75 22.75V16.25C9.75 15.6754 9.97827 15.1243 10.3846 14.718C10.7909 14.3116 11.342 14.0834 11.9167 14.0834H14.0833C14.658 14.0834 15.2091 14.3116 15.6154 14.718C16.0217 15.1243 16.25 15.6754 16.25 16.25V22.75" stroke="#54565A" strokeWidth="1.5" strokeLinecap="round" strokeLinejoin="round"/>
  </g>
  <defs>
    <clipPath id="clip0_1224_23267">
      <rect width="26" height="26" fill="white"/>
    </clipPath>
  </defs>
</svg>