<svg xmlns="http://www.w3.org/2000/svg" width="21" height="21" viewBox="0 0 21 21" fill="none">
<path d="M13.8332 7.04434V11.211C13.8332 11.8741 14.0966 12.5099 14.5654 12.9788C15.0343 13.4476 15.6701 13.711 16.3332 13.711C16.9962 13.711 17.6321 13.4476 18.1009 12.9788C18.5698 12.5099 18.8332 11.8741 18.8332 11.211V10.3777C18.8331 8.49687 18.1967 6.67141 17.0276 5.19812C15.8584 3.72483 14.2253 2.69036 12.3937 2.26292C10.5621 1.83549 8.63979 2.04021 6.9393 2.84382C5.23881 3.64742 3.86018 5.00264 3.02756 6.68911C2.19494 8.37559 1.95732 10.2941 2.35332 12.1328C2.74932 13.9714 3.75566 15.622 5.2087 16.8162C6.66175 18.0104 8.47604 18.678 10.3566 18.7103C12.2371 18.7426 14.0733 18.1379 15.5665 16.9943M13.8332 10.3777C13.8332 12.2186 12.3408 13.711 10.4998 13.711C8.6589 13.711 7.16651 12.2186 7.16651 10.3777C7.16651 8.53673 8.6589 7.04434 10.4998 7.04434C12.3408 7.04434 13.8332 8.53673 13.8332 10.3777Z" stroke="white" stroke-width="1.5" stroke-linecap="round" stroke-linejoin="round"/>
</svg>