<svg width="24" height="25" viewBox="0 0 24 25" fill="none" xmlns="http://www.w3.org/2000/svg">
<path d="M12 21.5288L11.8999 21.3787C11.2053 20.3368 10.858 19.8158 10.3991 19.4386C9.99286 19.1047 9.52476 18.8542 9.02161 18.7014C8.45325 18.5288 7.82711 18.5288 6.57482 18.5288H5.2C4.07989 18.5288 3.51984 18.5288 3.09202 18.3108C2.71569 18.1191 2.40973 17.8131 2.21799 17.4368C2 17.009 2 16.4489 2 15.3288V6.72881C2 5.6087 2 5.04865 2.21799 4.62083C2.40973 4.2445 2.71569 3.93854 3.09202 3.7468C3.51984 3.52881 4.07989 3.52881 5.2 3.52881H5.6C7.84021 3.52881 8.96031 3.52881 9.81596 3.96478C10.5686 4.34828 11.1805 4.9602 11.564 5.71285C12 6.56849 12 7.6886 12 9.92881M12 21.5288V9.92881M12 21.5288L12.1001 21.3787C12.7947 20.3368 13.142 19.8158 13.6009 19.4386C14.0071 19.1047 14.4752 18.8542 14.9784 18.7014C15.5467 18.5288 16.1729 18.5288 17.4252 18.5288H18.8C19.9201 18.5288 20.4802 18.5288 20.908 18.3108C21.2843 18.1191 21.5903 17.8131 21.782 17.4368C22 17.009 22 16.4489 22 15.3288V6.72881C22 5.6087 22 5.04865 21.782 4.62083C21.5903 4.2445 21.2843 3.93854 20.908 3.7468C20.4802 3.52881 19.9201 3.52881 18.8 3.52881H18.4C16.1598 3.52881 15.0397 3.52881 14.184 3.96478C13.4314 4.34828 12.8195 4.9602 12.436 5.71285C12 6.56849 12 7.6886 12 9.92881" stroke="#667085" stroke-width="2" stroke-linecap="round" stroke-linejoin="round"/>
</svg>
