<svg xmlns="http://www.w3.org/2000/svg" width="20" height="21" viewBox="0 0 20 21" fill="none">
<g clip-path="url(#clip0_2653_1504)">
<path fill-rule="evenodd" clip-rule="evenodd" d="M0 0.607422H20V20.6074H0V0.607422Z" fill="#229E45"/>
<path fill-rule="evenodd" clip-rule="evenodd" d="M10.2109 16.4434L19.1875 10.6152L10.1562 4.77148L1.14453 10.6309L10.207 16.4434H10.2109Z" fill="#F8E509"/>
<path fill-rule="evenodd" clip-rule="evenodd" d="M14.1212 10.6073C14.137 11.1159 14.0504 11.6225 13.8665 12.097C13.6827 12.5715 13.4053 13.0041 13.0509 13.3693C12.6966 13.7345 12.2724 14.0247 11.8036 14.2227C11.3349 14.4207 10.8311 14.5225 10.3223 14.522C9.81341 14.5214 9.30985 14.4186 8.8415 14.2197C8.37316 14.0207 7.94959 13.7296 7.59597 13.3637C7.24234 12.9978 6.96587 12.5646 6.78299 12.0897C6.60011 11.6148 6.51454 11.1081 6.53138 10.5995C6.56399 9.6141 6.97862 8.68005 7.68757 7.99489C8.39651 7.30974 9.34416 6.92721 10.3301 6.92822C11.316 6.92924 12.2629 7.31372 12.9704 8.00033C13.6779 8.68695 14.0906 9.62185 14.1212 10.6073Z" fill="#2B49A3"/>
<path fill-rule="evenodd" clip-rule="evenodd" d="M9.07422 12.8809L8.95703 12.8105L8.83594 12.873L8.86328 12.7363L8.76953 12.6387L8.90234 12.623L8.96484 12.498L9.02344 12.627L9.15625 12.6504L9.05469 12.7441M11.6211 13.5254L11.5039 13.4551L11.3789 13.5176L11.4062 13.3809L11.3125 13.2832L11.4492 13.2676L11.5117 13.1426L11.5664 13.2715L11.6992 13.2949L11.6016 13.3887M10.5234 12.4941L10.4219 12.4355L10.3164 12.4863L10.3398 12.3691L10.2617 12.2832L10.375 12.2715L10.4297 12.166L10.4766 12.2754L10.5938 12.2949L10.5078 12.373M13.0938 12.123L12.9922 12.0645L12.8906 12.1152L12.9141 12.002L12.8359 11.9199L12.9492 11.9043L13 11.8027L13.0508 11.9082L13.1641 11.9277L13.0781 12.0059M10.4766 11.3535L10.3594 11.2832L10.2383 11.3457L10.2656 11.209L10.1719 11.1113L10.3047 11.0957L10.3672 10.9746L10.4258 11.0996L10.5586 11.123L10.457 11.2168M7.34375 10.1777L7.22656 10.1074L7.10937 10.1699L7.13281 10.0332L7.03906 9.93555L7.17578 9.91992L7.23828 9.79492L7.29297 9.92383L7.42578 9.94727L7.32812 10.041M7.72266 11.7402L7.60547 11.6738L7.48438 11.7324L7.51172 11.5996L7.41797 11.498L7.55078 11.4824L7.61328 11.3652L7.67187 11.4863L7.80469 11.5137L7.70312 11.6035M11.6328 9.59961L11.5312 9.54102L11.4219 9.5918L11.4453 9.47461L11.3672 9.38477L11.4844 9.37305L11.5391 9.26367L11.5898 9.37695L11.707 9.39648L11.6172 9.47852M11.4219 10.6191L11.3281 10.5684L11.2461 10.6074L11.2617 10.5137L11.1992 10.4473L11.293 10.4355L11.3359 10.3496L11.375 10.4395L11.4688 10.4551L11.3984 10.5176M7.16406 12.0215L7.08594 11.9746L7.00391 12.0137L7.01953 11.9238L6.95703 11.8574L7.05078 11.8496L7.08984 11.7715L7.12891 11.8496L7.21875 11.8691L7.15234 11.9316M13.1133 12.3809L13.0469 12.3496L12.9805 12.377L12.9961 12.3105L12.9453 12.2598L13.0195 12.252L13.0547 12.1934L13.082 12.2559L13.1562 12.2676L13.1016 12.3145" fill="white"/>
<path fill-rule="evenodd" clip-rule="evenodd" d="M7.16797 12.0254L7.08984 11.9785L7.00781 12.0176L7.02734 11.9277L6.96094 11.8613L7.05078 11.8535L7.09375 11.7754L7.13281 11.8535L7.22266 11.873L7.15625 11.9355" fill="white"/>
<path fill-rule="evenodd" clip-rule="evenodd" d="M7.16797 12.0254L7.08984 11.9785L7.00781 12.0176L7.02734 11.9277L6.96094 11.8613L7.05078 11.8535L7.09375 11.7754L7.13281 11.8535L7.22266 11.873L7.15625 11.9355M8.41406 12.0254L8.33594 11.9785L8.25781 12.0176L8.27344 11.9277L8.21094 11.8613L8.30078 11.8535L8.33984 11.7715L8.37891 11.8535L8.46875 11.873L8.40234 11.9355M8.25781 12.4434L8.17969 12.3965L8.10156 12.4355L8.11719 12.3457L8.05469 12.2793L8.14453 12.2676L8.18359 12.1895L8.22266 12.2676L8.3125 12.2871L8.24609 12.3496M10.8516 11.6855L10.7734 11.6387L10.6914 11.6777L10.707 11.5879L10.6445 11.5215L10.7344 11.5137L10.7773 11.4316L10.8164 11.5137L10.9023 11.5293L10.8359 11.5918M10.0898 11.6855L10.0117 11.6387L9.92969 11.6777L9.94922 11.5879L9.88672 11.5215L9.97656 11.5137L10.0156 11.4316L10.0547 11.5137L10.1445 11.5293L10.0781 11.5918M8.02734 11.4199L7.98047 11.3926L7.92969 11.416L7.9375 11.3574L7.89844 11.3184L7.95703 11.3105L7.98437 11.2598L8.00391 11.3145L8.0625 11.3223L8.02344 11.3613M13.0156 12.7168L12.9375 12.6738L12.8555 12.7129L12.875 12.623L12.8125 12.5566L12.9023 12.5449L12.9414 12.4668L12.9805 12.5449L13.0703 12.5645L13.0039 12.627M12.3789 12.7988L12.3164 12.7598L12.25 12.7988L12.2656 12.7207L12.2109 12.666L12.2891 12.6582L12.3203 12.5918L12.3516 12.6582L12.4297 12.6738L12.3711 12.7246M12.6836 12.7949L12.6211 12.7559L12.5586 12.791L12.5703 12.7207L12.5234 12.6699L12.5938 12.6621L12.625 12.5996L12.6523 12.6621L12.7227 12.6738L12.6719 12.7246M13.5391 12.0449L13.4805 12.0098L13.418 12.041L13.4336 11.9746L13.3867 11.9238L13.4531 11.916L13.4844 11.8574L13.5117 11.9199L13.5781 11.9316L13.5273 11.9785M12.3828 13.2207L12.3047 13.1777L12.2266 13.2168L12.2461 13.1309L12.1836 13.0723L12.2695 13.0605L12.3125 12.9863L12.3516 13.0645L12.4336 13.0801L12.3711 13.1348M12.3867 13.5605L12.3164 13.5215L12.2461 13.5566L12.2617 13.4707L12.207 13.4121L12.2852 13.4004L12.3242 13.3262L12.3555 13.4043L12.4336 13.4199L12.375 13.4746M11.8086 12.7949L11.75 12.7598L11.6875 12.791L11.7031 12.7207L11.6562 12.6738L11.7227 12.666L11.7539 12.6035L11.7813 12.666L11.8477 12.6777L11.7969 12.7246M11.2695 12.7949L11.2109 12.7598L11.1484 12.791L11.1641 12.7207L11.1172 12.6738L11.1836 12.666L11.2148 12.6035L11.2422 12.666L11.3086 12.6777L11.2617 12.7246M10.3516 11.9902L10.293 11.9551L10.2305 11.9863L10.2461 11.9199L10.1992 11.8691L10.2656 11.8613L10.2969 11.8027L10.3242 11.8652L10.3906 11.877L10.3398 11.9199M10.4531 13.6191L10.4023 13.5918L10.3516 13.6191L10.3633 13.5605L10.3242 13.5215L10.3789 13.5098L10.4062 13.459L10.4297 13.5137L10.4883 13.5215L10.4453 13.5605M9.07031 10.9824L8.95312 10.916L8.83203 10.9746L8.85938 10.8418L8.76562 10.7402L8.89844 10.7246L8.96094 10.6035L9.01953 10.7285L9.15234 10.752L9.05078 10.8457" fill="white"/>
<path fill-rule="evenodd" clip-rule="evenodd" d="M13.8711 11.9744C13.9446 11.7828 14.0021 11.5855 14.043 11.3845C12.0273 9.61108 9.77734 8.70093 6.93359 8.88843C6.83172 9.0875 6.74804 9.29538 6.68359 9.50952C7.98819 9.37777 9.30586 9.52946 10.5464 9.9542C11.7869 10.379 12.921 11.0667 13.8711 11.9705V11.9744Z" fill="white"/>
<path d="M12.9648 10.9746L13.0352 11.0137C13.0242 11.0354 13.0214 11.0604 13.0273 11.084C13.0312 11.0996 13.0469 11.1191 13.0664 11.1309C13.0898 11.1465 13.1094 11.1543 13.1289 11.1543C13.1445 11.1543 13.1602 11.1426 13.168 11.1309C13.1719 11.123 13.1758 11.1152 13.1719 11.1035L13.1602 11.0723L13.1133 11.0215C13.0884 10.9962 13.0697 10.9654 13.0586 10.9316C13.0518 10.9062 13.0543 10.8792 13.0658 10.8555C13.0773 10.8319 13.0969 10.8131 13.1211 10.8027C13.1419 10.7935 13.1651 10.7908 13.1875 10.7949C13.2157 10.8011 13.2423 10.813 13.2656 10.8301C13.2995 10.8539 13.3264 10.8862 13.3438 10.9238C13.3485 10.9411 13.3492 10.9593 13.3458 10.9769C13.3424 10.9945 13.335 11.0111 13.3242 11.0254L13.2539 10.9824C13.2617 10.9629 13.2656 10.9434 13.2617 10.9277C13.2578 10.916 13.2422 10.9004 13.2227 10.8887C13.2031 10.873 13.1836 10.8691 13.168 10.8691C13.1634 10.8693 13.159 10.8704 13.155 10.8724C13.1509 10.8744 13.1474 10.8773 13.1445 10.8809C13.1418 10.8848 13.1401 10.8893 13.1394 10.8941C13.1387 10.8988 13.1391 10.9037 13.1406 10.9082C13.1406 10.9238 13.1602 10.9473 13.1875 10.9746L13.2461 11.0527C13.2567 11.0722 13.2617 11.0942 13.2603 11.1164C13.2589 11.1385 13.2513 11.1598 13.2383 11.1777C13.2246 11.1971 13.2056 11.212 13.1836 11.2207C13.1604 11.2313 13.1343 11.2341 13.1094 11.2285C13.0797 11.221 13.0519 11.2077 13.0273 11.1895C12.9904 11.1673 12.9627 11.1327 12.9492 11.0918C12.9375 11.0566 12.9414 11.0176 12.9648 10.9746ZM12.6211 10.752L12.6992 10.791C12.6901 10.8105 12.6873 10.8324 12.6914 10.8535C12.6953 10.873 12.7109 10.8926 12.7305 10.9043C12.7539 10.9199 12.7734 10.9238 12.793 10.9199C12.8086 10.9199 12.8242 10.9121 12.832 10.8965C12.8357 10.8893 12.8371 10.8811 12.8359 10.873C12.8359 10.8613 12.832 10.8535 12.8203 10.8418L12.7734 10.791C12.7477 10.7671 12.7277 10.7378 12.7148 10.7051C12.7097 10.6896 12.708 10.6731 12.7101 10.6569C12.7121 10.6406 12.7177 10.6251 12.7266 10.6113C12.7382 10.5941 12.7544 10.5806 12.7734 10.5723C12.7943 10.5633 12.8174 10.5606 12.8398 10.5645C12.8633 10.5645 12.8867 10.5762 12.918 10.5957C12.957 10.623 12.9883 10.6504 12.9961 10.6855C13.0019 10.7023 13.0039 10.7201 13.0019 10.7377C12.9999 10.7553 12.9939 10.7722 12.9844 10.7871L12.9102 10.7441C12.9219 10.7246 12.9219 10.7051 12.918 10.6934C12.9102 10.6777 12.8984 10.666 12.8789 10.6543C12.8621 10.6414 12.8415 10.6345 12.8203 10.6348C12.8155 10.6354 12.8108 10.6371 12.8067 10.6398C12.8027 10.6425 12.7993 10.6461 12.7969 10.6504C12.7948 10.6547 12.7937 10.6593 12.7937 10.6641C12.7937 10.6688 12.7948 10.6735 12.7969 10.6777C12.7969 10.6895 12.8164 10.7129 12.8437 10.7441C12.875 10.7715 12.8945 10.7988 12.9062 10.8145C12.9183 10.834 12.9243 10.8566 12.9236 10.8795C12.9229 10.9024 12.9155 10.9246 12.9023 10.9434C12.889 10.9636 12.8702 10.9796 12.848 10.9893C12.8258 10.999 12.8012 11.002 12.7773 10.998C12.7467 10.9921 12.7175 10.9801 12.6914 10.9629C12.654 10.9422 12.625 10.909 12.6094 10.8691C12.5983 10.83 12.6024 10.7881 12.6211 10.752ZM12.1992 10.6348L12.418 10.2832L12.6797 10.4395L12.6406 10.502L12.4531 10.3848L12.4023 10.4629L12.582 10.5723L12.543 10.6348L12.3672 10.5254L12.3086 10.623L12.5039 10.7402L12.4688 10.8027L12.1992 10.6387V10.6348ZM11.582 10.1309L11.6172 10.0684L11.7734 10.1543L11.6992 10.2988C11.6359 10.3129 11.5696 10.3046 11.5117 10.2754C11.4768 10.2573 11.4472 10.2303 11.4258 10.1973C11.4051 10.1674 11.3942 10.132 11.3945 10.0957C11.3945 10.0566 11.4062 10.0215 11.4258 9.98633C11.4438 9.95025 11.4707 9.91934 11.5039 9.89648C11.5312 9.87305 11.5703 9.86133 11.6094 9.86133C11.6367 9.86133 11.6719 9.87305 11.707 9.88867C11.7455 9.90677 11.7771 9.93694 11.7969 9.97461C11.8125 10.0059 11.8164 10.041 11.8086 10.0801L11.7266 10.0566C11.731 10.0368 11.7282 10.016 11.7187 9.99805C11.7084 9.9789 11.6919 9.96377 11.6719 9.95508C11.658 9.94649 11.6425 9.941 11.6263 9.93898C11.6101 9.93696 11.5937 9.93845 11.5781 9.94336C11.5508 9.95508 11.5234 9.98242 11.5 10.0215C11.481 10.0574 11.4741 10.0985 11.4805 10.1387C11.4883 10.1699 11.5078 10.1934 11.543 10.209L11.5937 10.2246H11.6445L11.668 10.1777L11.582 10.1309ZM8.89453 9.4668L8.95703 9.05273L9.08203 9.07227L9.11328 9.36523L9.23047 9.0918L9.35156 9.11133L9.29297 9.52539L9.21484 9.51367L9.26172 9.18945L9.13281 9.50195L9.05469 9.49023L9.01953 9.15039L8.97266 9.47852L8.89453 9.4668ZM8.47656 9.41602L8.51562 9.00195L8.82031 9.0293L8.81641 9.09961L8.58984 9.08008L8.58203 9.16992L8.78906 9.18945L8.78516 9.25977L8.57813 9.24023L8.56641 9.35742L8.79687 9.37695L8.78906 9.44727L8.47656 9.41602Z" fill="#309E3A"/>
<path d="M7.08539 9.15439C7.08539 9.11533 7.0932 9.07626 7.10492 9.04892L7.14398 8.99423L7.20257 8.95517C7.23143 8.94525 7.26199 8.94127 7.29242 8.94345C7.31953 8.94327 7.34638 8.94873 7.37126 8.95949C7.39614 8.97025 7.41851 8.98607 7.43695 9.00595C7.47601 9.04501 7.48773 9.0958 7.48773 9.1622C7.48773 9.23251 7.46429 9.2833 7.42914 9.31845C7.40958 9.33742 7.38627 9.35208 7.3607 9.3615C7.33514 9.37091 7.30789 9.37488 7.2807 9.37314C7.25387 9.37382 7.2272 9.36898 7.20233 9.35889C7.17746 9.34881 7.15494 9.33372 7.13617 9.31455C7.11686 9.29375 7.10232 9.269 7.09355 9.24202C7.08478 9.21504 7.08199 9.18647 7.08539 9.1583V9.15439Z" fill="#309E3A"/>
<path d="M7.17188 9.1543C7.17188 9.20117 7.17969 9.24023 7.20312 9.26367C7.22266 9.29102 7.25 9.30273 7.28125 9.30273C7.29721 9.30304 7.31307 9.30008 7.32785 9.29403C7.34263 9.28799 7.35601 9.27898 7.36719 9.26758C7.38672 9.24414 7.39844 9.20898 7.40234 9.16211C7.40234 9.11133 7.39453 9.07617 7.37109 9.05273C7.36162 9.04102 7.34974 9.03147 7.33626 9.02474C7.32279 9.018 7.30803 9.01422 7.29297 9.01367C7.25391 9.01367 7.22656 9.02539 7.20703 9.04883C7.18359 9.07227 7.17188 9.10742 7.16797 9.1543H7.17188Z" fill="#F7FFFF"/>
<path d="M7.57812 9.37305L7.58203 8.95508H7.75781C7.80469 8.95508 7.83594 8.96289 7.85547 8.9707C7.875 8.97852 7.89453 8.99023 7.90234 9.00977C7.91016 9.0293 7.92188 9.04883 7.92188 9.07617C7.92188 9.10742 7.91016 9.13086 7.89453 9.1543C7.875 9.17383 7.84766 9.18555 7.80859 9.19336C7.82812 9.20117 7.84375 9.21289 7.85547 9.22461L7.90234 9.29492L7.95313 9.37305H7.85156L7.79297 9.2832C7.77866 9.26141 7.76301 9.24054 7.74609 9.2207C7.73957 9.21378 7.73156 9.20844 7.72266 9.20508C7.71009 9.20058 7.69693 9.19795 7.68359 9.19727H7.66406V9.37305H7.57812Z" fill="#309E3A"/>
<path d="M7.66406 9.13086H7.72656C7.7525 9.13409 7.77875 9.13409 7.80469 9.13086L7.82422 9.11133C7.83203 9.10352 7.83594 9.0918 7.83594 9.08008C7.83594 9.06445 7.83203 9.05273 7.82422 9.04492C7.81598 9.03618 7.80491 9.03065 7.79297 9.0293H7.66797V9.13086H7.66406Z" fill="white"/>
<path d="M8.05469 8.97461L8.20703 8.98242C8.23348 8.98283 8.25975 8.98677 8.28516 8.99414C8.30741 9.00253 8.32745 9.01589 8.34375 9.0332C8.36199 9.05482 8.37532 9.08015 8.38281 9.10742C8.39062 9.13477 8.39062 9.16602 8.39062 9.20508C8.39179 9.23499 8.38646 9.26479 8.37499 9.29244C8.36353 9.32009 8.34621 9.34493 8.32422 9.36523C8.30859 9.37695 8.28906 9.38867 8.26562 9.39648H8.1875L8.03125 9.39258L8.05469 8.97461Z" fill="#309E3A"/>
<path d="M8.13281 9.04883L8.12109 9.32227L8.18359 9.33008H8.23438L8.26953 9.31055C8.28125 9.30273 8.28516 9.29102 8.29297 9.27148L8.30469 9.19336L8.30078 9.12305C8.29297 9.10352 8.28906 9.0918 8.27734 9.08398C8.26694 9.07246 8.25334 9.0643 8.23828 9.06055C8.21642 9.05597 8.1942 9.05336 8.17188 9.05273H8.13281V9.04883Z" fill="white"/>
<path d="M10.0977 9.7207L10.1953 9.31445L10.3242 9.3457C10.375 9.35742 10.4062 9.36914 10.4219 9.37695C10.4414 9.38867 10.4609 9.4043 10.4688 9.42773C10.4805 9.45508 10.4805 9.48242 10.4727 9.51367C10.4692 9.53382 10.4605 9.55271 10.4475 9.56847C10.4345 9.58423 10.4176 9.59632 10.3984 9.60352C10.385 9.61013 10.3704 9.61411 10.3555 9.61523C10.3264 9.61271 10.2976 9.60748 10.2695 9.59961L10.2148 9.58789L10.1758 9.74023L10.0977 9.7207Z" fill="#309E3A"/>
<path d="M10.2578 9.4043L10.2305 9.52148L10.2773 9.5293C10.3086 9.53711 10.332 9.54102 10.3437 9.53711C10.3546 9.53599 10.3648 9.53168 10.3731 9.52472C10.3815 9.51777 10.3876 9.50848 10.3906 9.49805L10.3867 9.45508C10.38 9.44245 10.3689 9.43273 10.3555 9.42773L10.2969 9.41211L10.2578 9.4043Z" fill="white"/>
<path d="M10.4844 9.83789L10.6211 9.44336L10.7891 9.50195C10.8195 9.51055 10.8485 9.52372 10.875 9.54102C10.8906 9.55664 10.9023 9.57617 10.9102 9.59961C10.918 9.62305 10.9102 9.64258 10.9023 9.66602C10.8945 9.69727 10.875 9.7168 10.8516 9.72852C10.8381 9.73633 10.8232 9.7414 10.8078 9.74341C10.7924 9.74542 10.7767 9.74434 10.7617 9.74023L10.793 9.78711L10.8164 9.86523L10.8359 9.95898L10.7422 9.92773L10.7148 9.82227C10.7087 9.79702 10.7009 9.77222 10.6914 9.74805C10.688 9.73915 10.6827 9.73113 10.6758 9.72461C10.6639 9.71599 10.6507 9.70939 10.6367 9.70508L10.6211 9.70117L10.5625 9.86523L10.4844 9.83789Z" fill="#309E3A"/>
<path d="M10.6406 9.63867L10.6992 9.6582L10.7734 9.67773C10.7852 9.67773 10.793 9.67773 10.8008 9.66992L10.8203 9.64258V9.60352C10.8153 9.5933 10.8071 9.58505 10.7969 9.58008L10.7383 9.56055L10.6758 9.53711L10.6406 9.63867Z" fill="white"/>
<path d="M10.9734 9.82227C10.9833 9.78652 11.0006 9.75326 11.0242 9.72461C11.0359 9.70508 11.0554 9.69336 11.0749 9.68164C11.0942 9.671 11.1155 9.66435 11.1374 9.66211C11.1648 9.66211 11.196 9.66211 11.2273 9.67383C11.2538 9.68046 11.2786 9.69257 11.3001 9.70939C11.3217 9.72622 11.3394 9.74737 11.3523 9.77148C11.3757 9.81836 11.3796 9.87695 11.3562 9.93945C11.3497 9.96755 11.3378 9.9941 11.321 10.0176C11.3042 10.041 11.283 10.0609 11.2585 10.0762C11.2344 10.0882 11.2081 10.0951 11.1812 10.0964C11.1543 10.0978 11.1275 10.0935 11.1023 10.084C11.0758 10.0774 11.051 10.0652 11.0294 10.0484C11.0079 10.0316 10.9901 10.0104 10.9773 9.98633C10.9543 9.93431 10.9529 9.87532 10.9734 9.82227Z" fill="#309E3A"/>
<path d="M11.0557 9.8455C11.0439 9.88847 11.0439 9.92362 11.0557 9.95487C11.0713 9.98612 11.0947 10.0057 11.126 10.0174C11.1572 10.0252 11.1846 10.0213 11.2119 10.0057C11.2393 9.99003 11.2627 9.95878 11.2783 9.9119C11.29 9.86503 11.29 9.82987 11.2783 9.79862C11.2718 9.7842 11.262 9.77145 11.2499 9.7613C11.2377 9.75116 11.2234 9.74389 11.208 9.74003C11.1931 9.73518 11.1773 9.73372 11.1618 9.73575C11.1462 9.73778 11.1313 9.74324 11.1182 9.75175C11.0908 9.76737 11.0713 9.79862 11.0557 9.8455Z" fill="white"/>
<path d="M11.7852 10.4043L11.9766 10.0332L12.1328 10.1113C12.1719 10.1348 12.1992 10.1504 12.2109 10.166C12.2266 10.1855 12.2344 10.2051 12.2383 10.2246C12.2422 10.2441 12.2383 10.2715 12.2227 10.291C12.2109 10.3184 12.1914 10.3379 12.1641 10.3496C12.1367 10.3574 12.1094 10.3574 12.0742 10.3457C12.0859 10.3613 12.0938 10.3809 12.0977 10.3965L12.1094 10.4785L12.1172 10.5762L12.0273 10.5293L12.0156 10.4199L12.0039 10.3418C12.0005 10.3329 11.9952 10.3249 11.9883 10.3184C11.9778 10.3088 11.966 10.3009 11.9531 10.2949L11.9375 10.2871L11.8594 10.4434L11.7852 10.4043Z" fill="#309E3A"/>
<path d="M11.9688 10.2285L12.0234 10.2559L12.0938 10.2871C12.1055 10.2871 12.1133 10.2871 12.1211 10.2793C12.1316 10.2738 12.1402 10.2653 12.1458 10.2549C12.1514 10.2444 12.1537 10.2325 12.1523 10.2207C12.1481 10.209 12.1398 10.1993 12.1289 10.1934C12.1124 10.1823 12.0954 10.1719 12.0781 10.1621L12.0195 10.1348L11.9688 10.2285Z" fill="white"/>
<path d="M13.3287 11.1661C13.3522 11.127 13.3756 11.1036 13.4069 11.088C13.4259 11.0753 13.4471 11.066 13.4694 11.0606C13.49 11.0566 13.5112 11.0566 13.5319 11.0606C13.5592 11.0645 13.5905 11.0762 13.6178 11.0997C13.6409 11.1138 13.6608 11.1325 13.6763 11.1547C13.6917 11.1769 13.7024 11.2021 13.7076 11.2286C13.7133 11.2854 13.698 11.3424 13.6647 11.3887C13.6498 11.414 13.6301 11.4359 13.6066 11.4534C13.5831 11.4708 13.5564 11.4834 13.5279 11.4903C13.5015 11.4953 13.4743 11.4947 13.4481 11.4886C13.4219 11.4826 13.3972 11.4712 13.3756 11.4552C13.3525 11.4411 13.3326 11.4223 13.3171 11.4001C13.3017 11.3779 13.291 11.3528 13.2858 11.3262C13.2814 11.2983 13.2826 11.2698 13.2893 11.2423C13.296 11.2148 13.3081 11.1889 13.3248 11.1661H13.3287Z" fill="#309E3A"/>
<path d="M13.3992 11.2093C13.3757 11.2483 13.364 11.2874 13.3679 11.3186C13.3706 11.3344 13.3765 11.3495 13.3852 11.363C13.394 11.3764 13.4054 11.3879 13.4187 11.3968C13.4311 11.4054 13.4452 11.4112 13.46 11.4139C13.4748 11.4166 13.49 11.4161 13.5046 11.4124C13.5359 11.4046 13.5671 11.3811 13.5945 11.3382C13.6218 11.2991 13.6336 11.2639 13.6257 11.2327C13.6257 11.2014 13.6062 11.178 13.5789 11.1546C13.5515 11.1311 13.5203 11.1311 13.489 11.1389C13.4578 11.1468 13.4304 11.1702 13.4031 11.2093H13.3992Z" fill="white"/>
<path d="M9.625 9.55273L9.69141 9.25586L9.91016 9.30664L9.89844 9.35742L9.74219 9.31836L9.72656 9.38477L9.87109 9.41992L9.85938 9.4707L9.71484 9.43164L9.69531 9.51367L9.85938 9.55273L9.84766 9.60352L9.625 9.55273Z" fill="#309E3A"/>
</g>
<defs>
<clipPath id="clip0_2653_1504">
<rect y="0.607422" width="20" height="20" rx="10" fill="white"/>
</clipPath>
</defs>
</svg>