<svg width="24" height="25" viewBox="0 0 24 25" fill="none" xmlns="http://www.w3.org/2000/svg">
<path d="M20.5 7.80664L12 12.5289M12 12.5289L3.49997 7.80664M12 12.5289L12 22.0289M21 16.5874V8.47034C21 8.1277 21 7.95637 20.9495 7.80358C20.9049 7.6684 20.8318 7.54432 20.7354 7.43963C20.6263 7.32129 20.4766 7.23809 20.177 7.07169L12.777 2.96058C12.4934 2.80302 12.3516 2.72424 12.2015 2.69335C12.0685 2.66602 11.9315 2.66602 11.7986 2.69335C11.6484 2.72424 11.5066 2.80302 11.223 2.96058L3.82297 7.07169C3.52345 7.23809 3.37369 7.32129 3.26463 7.43963C3.16816 7.54432 3.09515 7.6684 3.05048 7.80358C3 7.95638 3 8.1277 3 8.47034V16.5874C3 16.9301 3 17.1014 3.05048 17.2542C3.09515 17.3894 3.16816 17.5135 3.26463 17.6182C3.37369 17.7365 3.52345 17.8197 3.82297 17.9861L11.223 22.0972C11.5066 22.2548 11.6484 22.3335 11.7986 22.3644C11.9315 22.3918 12.0685 22.3918 12.2015 22.3644C12.3516 22.3335 12.4934 22.2548 12.777 22.0972L20.177 17.9861C20.4766 17.8197 20.6263 17.7365 20.7354 17.6182C20.8318 17.5135 20.9049 17.3894 20.9495 17.2542C21 17.1014 21 16.9301 21 16.5874Z" stroke="#667085" stroke-width="2" stroke-linecap="round" stroke-linejoin="round"/>
</svg>
