<svg width="21" height="21" viewBox="0 0 21 21" fill="none" xmlns="http://www.w3.org/2000/svg">
<path d="M2.58295 8.36719H18.4163M8.83295 3.36719L7.16628 8.36719L10.4996 17.9505L13.8329 8.36719L12.1663 3.36719M11.0118 17.7526L18.4773 8.79398C18.6038 8.64215 18.6671 8.56623 18.6912 8.48149C18.7126 8.40678 18.7126 8.3276 18.6912 8.25288C18.6671 8.16814 18.6038 8.09223 18.4773 7.9404L14.8662 3.60706C14.7927 3.51889 14.756 3.4748 14.7109 3.44311C14.671 3.41503 14.6265 3.39417 14.5794 3.3815C14.5262 3.36719 14.4688 3.36719 14.354 3.36719H6.6452C6.53042 3.36719 6.47303 3.36719 6.41985 3.3815C6.37273 3.39417 6.32821 3.41503 6.2883 3.44311C6.24327 3.4748 6.20653 3.51889 6.13305 3.60706L2.52194 7.9404C2.39541 8.09222 2.33215 8.16814 2.30798 8.25288C2.28666 8.32759 2.28666 8.40678 2.30798 8.48149C2.33215 8.56623 2.39541 8.64215 2.52194 8.79397L9.98747 17.7526C10.1633 17.9637 10.2513 18.0692 10.3566 18.1077C10.4489 18.1414 10.5503 18.1414 10.6427 18.1077C10.7479 18.0692 10.8359 17.9637 11.0118 17.7526Z" stroke="#16B364" stroke-width="1.66667" stroke-linecap="round" stroke-linejoin="round"/>
</svg>
