<svg width="21" height="21" viewBox="0 0 21 21" fill="none" xmlns="http://www.w3.org/2000/svg">
<path d="M2.58295 7.66675H18.4163M8.83295 2.66675L7.16628 7.66675L10.4996 17.2501L13.8329 7.66675L12.1663 2.66675M11.0118 17.0522L18.4773 8.09354C18.6038 7.94171 18.6671 7.86579 18.6912 7.78105C18.7126 7.70634 18.7126 7.62716 18.6912 7.55244C18.6671 7.4677 18.6038 7.39179 18.4773 7.23996L14.8662 2.90663C14.7927 2.81845 14.756 2.77436 14.7109 2.74267C14.671 2.71459 14.6265 2.69373 14.5794 2.68106C14.5262 2.66675 14.4688 2.66675 14.354 2.66675H6.6452C6.53042 2.66675 6.47303 2.66675 6.41985 2.68106C6.37273 2.69373 6.32821 2.71459 6.2883 2.74267C6.24327 2.77436 6.20653 2.81845 6.13305 2.90663L2.52194 7.23996C2.39541 7.39179 2.33215 7.4677 2.30798 7.55244C2.28666 7.62715 2.28666 7.70634 2.30798 7.78105C2.33215 7.86579 2.39541 7.94171 2.52194 8.09354L9.98747 17.0522C10.1633 17.2632 10.2513 17.3688 10.3566 17.4072C10.4489 17.441 10.5503 17.441 10.6427 17.4072C10.7479 17.3688 10.8359 17.2632 11.0118 17.0522Z" stroke="#F63D68" stroke-width="1.66667" stroke-linecap="round" stroke-linejoin="round"/>
</svg>
