<svg xmlns="http://www.w3.org/2000/svg" width="18" height="18" viewBox="0 0 18 18" fill="none">
<path d="M6 5.25C6 6.04565 6.31607 6.80871 6.87868 7.37132C7.44129 7.93393 8.20435 8.25 9 8.25C9.79565 8.25 10.5587 7.93393 11.1213 7.37132C11.6839 6.80871 12 6.04565 12 5.25C12 4.45435 11.6839 3.69129 11.1213 3.12868C10.5587 2.56607 9.79565 2.25 9 2.25C8.20435 2.25 7.44129 2.56607 6.87868 3.12868C6.31607 3.69129 6 4.45435 6 5.25Z" stroke="white" stroke-linecap="round" stroke-linejoin="round"/>
<path d="M4.5 15.75V14.25C4.5 13.4544 4.81607 12.6913 5.37868 12.1287C5.94129 11.5661 6.70435 11.25 7.5 11.25H7.875" stroke="white" stroke-linecap="round" stroke-linejoin="round"/>
<path d="M13.5001 16.4997L16.0126 14.0367C16.1667 13.8872 16.2892 13.7083 16.373 13.5107C16.4568 13.313 16.5002 13.1006 16.5005 12.8859C16.5009 12.6712 16.4582 12.4586 16.3751 12.2607C16.2919 12.0627 16.1699 11.8835 16.0163 11.7335C15.7029 11.427 15.2822 11.255 14.8439 11.2541C14.4055 11.2533 13.9842 11.4237 13.6696 11.729L13.5016 11.894L13.3343 11.729C13.021 11.4227 12.6004 11.2508 12.1623 11.25C11.7241 11.2492 11.3029 11.4194 10.9883 11.7245C10.8342 11.8739 10.7116 12.0528 10.6277 12.2504C10.5439 12.448 10.5004 12.6605 10.5 12.8751C10.4996 13.0898 10.5422 13.3024 10.6253 13.5004C10.7084 13.6984 10.8303 13.8777 10.9838 14.0277L13.5001 16.4997Z" stroke="white" stroke-linecap="round" stroke-linejoin="round"/>
</svg>