<svg width="21" height="22" viewBox="0 0 21 22" fill="none" xmlns="http://www.w3.org/2000/svg">
<path d="M18.6485 16.076L13.0669 11.0345M8.26546 11.0345L2.68383 16.076M2.26367 6.83325L9.12425 11.6357C9.6798 12.0245 9.95758 12.219 10.2597 12.2943C10.5266 12.3608 10.8057 12.3608 11.0726 12.2943C11.3748 12.219 11.6526 12.0245 12.2081 11.6357L19.0687 6.83325M6.29688 17.7565H15.0355C16.4472 17.7565 17.1531 17.7565 17.6923 17.4818C18.1666 17.2401 18.5523 16.8545 18.7939 16.3802C19.0687 15.8409 19.0687 15.1351 19.0687 13.7233V8.3457C19.0687 6.93395 19.0687 6.22807 18.7939 5.68885C18.5523 5.21454 18.1666 4.82892 17.6923 4.58725C17.1531 4.3125 16.4472 4.3125 15.0355 4.3125H6.29688C4.88512 4.3125 4.17924 4.3125 3.64003 4.58725C3.16572 4.82892 2.78009 5.21454 2.53842 5.68885C2.26367 6.22807 2.26367 6.93395 2.26367 8.3457V13.7233C2.26367 15.1351 2.26367 15.8409 2.53842 16.3802C2.78009 16.8545 3.16572 17.2401 3.64003 17.4818C4.17924 17.7565 4.88512 17.7565 6.29688 17.7565Z" stroke="#16B364" stroke-width="1.6805" stroke-linecap="round" stroke-linejoin="round"/>
</svg>
