<svg width="21" height="21" viewBox="0 0 21 21" fill="none" xmlns="http://www.w3.org/2000/svg">
<path d="M18.4167 15.1668L12.881 10.1668M8.11913 10.1668L2.58344 15.1668M2.16675 6.00008L8.97085 10.763C9.52182 11.1486 9.79731 11.3415 10.097 11.4162C10.3617 11.4822 10.6385 11.4822 10.9032 11.4162C11.2029 11.3415 11.4783 11.1486 12.0293 10.763L18.8334 6.00008M6.16675 16.8334H14.8334C16.2335 16.8334 16.9336 16.8334 17.4684 16.5609C17.9388 16.3213 18.3212 15.9388 18.5609 15.4684C18.8334 14.9336 18.8334 14.2335 18.8334 12.8334V7.50008C18.8334 6.09995 18.8334 5.39989 18.5609 4.86511C18.3212 4.3947 17.9388 4.01225 17.4684 3.77257C16.9336 3.50008 16.2335 3.50008 14.8334 3.50008H6.16675C4.76662 3.50008 4.06655 3.50008 3.53177 3.77257C3.06137 4.01225 2.67892 4.3947 2.43923 4.86511C2.16675 5.39989 2.16675 6.09995 2.16675 7.50008V12.8334C2.16675 14.2335 2.16675 14.9336 2.43923 15.4684C2.67892 15.9388 3.06137 16.3213 3.53177 16.5609C4.06655 16.8334 4.76662 16.8334 6.16675 16.8334Z" stroke="#F63D68" stroke-width="1.66667" stroke-linecap="round" stroke-linejoin="round"/>
</svg>
