<svg xmlns="http://www.w3.org/2000/svg" width="18" height="18" viewBox="0 0 18 18" fill="none">
<path d="M4.5 6.75C4.5 7.94347 4.97411 9.08807 5.81802 9.93198C6.66193 10.7759 7.80653 11.25 9 11.25C10.1935 11.25 11.3381 10.7759 12.182 9.93198C13.0259 9.08807 13.5 7.94347 13.5 6.75C13.5 5.55653 13.0259 4.41193 12.182 3.56802C11.3381 2.72411 10.1935 2.25 9 2.25C7.80653 2.25 6.66193 2.72411 5.81802 3.56802C4.97411 4.41193 4.5 5.55653 4.5 6.75Z" stroke="white" stroke-linecap="round" stroke-linejoin="round"/>
<path d="M9 11.25L11.55 15.6675L12.7485 13.2427L15.447 13.4167L12.897 9" stroke="white" stroke-linecap="round" stroke-linejoin="round"/>
<path d="M5.10078 9L2.55078 13.4175L5.24928 13.2427L6.44778 15.6667L8.99778 11.25" stroke="white" stroke-linecap="round" stroke-linejoin="round"/>
</svg>