<svg width="24" height="25" viewBox="0 0 24 25" fill="none" xmlns="http://www.w3.org/2000/svg">
<path d="M6.09436 11.7576C6.03221 11.357 5.99996 10.9467 5.99996 10.5288C5.99996 6.11053 9.60525 2.52881 14.0526 2.52881C18.4999 2.52881 22.1052 6.11053 22.1052 10.5288C22.1052 11.5269 21.9213 12.4823 21.5852 13.3633C21.5154 13.5463 21.4804 13.6378 21.4646 13.7092C21.4489 13.78 21.4428 13.8298 21.4411 13.9023C21.4394 13.9754 21.4493 14.056 21.4692 14.2171L21.8717 17.4873C21.9153 17.8413 21.9371 18.0183 21.8782 18.147C21.8266 18.2598 21.735 18.3493 21.6211 18.3983C21.4911 18.4542 21.3146 18.4284 20.9617 18.3766L17.7765 17.9097C17.6101 17.8853 17.527 17.8732 17.4512 17.8736C17.3763 17.874 17.3245 17.8795 17.2511 17.895C17.177 17.9105 17.0823 17.946 16.893 18.0169C16.0097 18.3478 15.0524 18.5288 14.0526 18.5288C13.6344 18.5288 13.2237 18.4971 12.8227 18.4361M7.63158 22.5288C10.5965 22.5288 13 20.0664 13 17.0288C13 13.9912 10.5965 11.5288 7.63158 11.5288C4.66668 11.5288 2.26316 13.9912 2.26316 17.0288C2.26316 17.6394 2.36028 18.2268 2.53955 18.7755C2.61533 19.0075 2.65322 19.1235 2.66566 19.2027C2.67864 19.2855 2.68091 19.3319 2.67608 19.4155C2.67145 19.4956 2.65141 19.5861 2.61134 19.7671L2 22.5288L4.9948 22.1198C5.15827 22.0975 5.24 22.0863 5.31137 22.0868C5.38652 22.0873 5.42641 22.0914 5.50011 22.1061C5.5701 22.12 5.67416 22.1568 5.88227 22.2302C6.43059 22.4237 7.01911 22.5288 7.63158 22.5288Z" stroke="#667085" stroke-width="2" stroke-linecap="round" stroke-linejoin="round"/>
</svg>
