<svg xmlns="http://www.w3.org/2000/svg" width="20" height="21" viewBox="0 0 20 21" fill="none">
<g clip-path="url(#clip0_2600_5711)">
<path d="M17.5003 11.115L10.0003 18.543L2.5003 11.115C2.00561 10.6336 1.61594 10.055 1.35585 9.41566C1.09575 8.77628 0.970863 8.08997 0.989039 7.39996C1.00721 6.70994 1.16806 6.03116 1.46146 5.40636C1.75485 4.78156 2.17444 4.22428 2.69379 3.7696C3.21314 3.31493 3.82101 2.97271 4.47911 2.7645C5.13722 2.5563 5.83131 2.48661 6.51767 2.55982C7.20403 2.63304 7.8678 2.84758 8.46718 3.18993C9.06655 3.53228 9.58855 3.99502 10.0003 4.54902C10.4138 3.99905 10.9364 3.54034 11.5354 3.20163C12.1344 2.86291 12.7968 2.65147 13.4812 2.58054C14.1657 2.50961 14.8574 2.58072 15.5131 2.78942C16.1688 2.99811 16.7743 3.3399 17.2919 3.79339C17.8094 4.24688 18.2277 4.80231 18.5207 5.42492C18.8137 6.04752 18.975 6.72391 18.9946 7.41173C19.0142 8.09956 18.8916 8.78402 18.6344 9.42227C18.3773 10.0605 17.9912 10.6388 17.5003 11.121" stroke="white" stroke-width="1.5" stroke-linecap="round" stroke-linejoin="round"/>
<path d="M10.0003 4.54297L6.70734 7.83597C6.51987 8.0235 6.41455 8.2778 6.41455 8.54297C6.41455 8.80813 6.51987 9.06244 6.70734 9.24997L7.25034 9.79297C7.94034 10.483 9.06034 10.483 9.75034 9.79297L10.7503 8.79297C11.3471 8.19624 12.1564 7.861 13.0003 7.861C13.8442 7.861 14.6536 8.19624 15.2503 8.79297L17.5003 11.043" stroke="white" stroke-width="1.5" stroke-linecap="round" stroke-linejoin="round"/>
<path d="M10.5 14.043L12.5 16.043" stroke="white" stroke-width="1.5" stroke-linecap="round" stroke-linejoin="round"/>
<path d="M13 11.543L15 13.543" stroke="white" stroke-width="1.5" stroke-linecap="round" stroke-linejoin="round"/>
</g>
<defs>
<clipPath id="clip0_2600_5711">
<rect width="20" height="20" fill="white" transform="translate(0 0.542969)"/>
</clipPath>
</defs>
</svg>