<svg xmlns="http://www.w3.org/2000/svg" width="18" height="18" viewBox="0 0 18 18" fill="none">
<path d="M11.25 3L15.75 4.5V8.25H13.5V14.25C13.5 14.4489 13.421 14.6397 13.2803 14.7803C13.1397 14.921 12.9489 15 12.75 15H5.25C5.05109 15 4.86032 14.921 4.71967 14.7803C4.57902 14.6397 4.5 14.4489 4.5 14.25V8.25H2.25V4.5L6.75 3C6.75 3.59674 6.98705 4.16903 7.40901 4.59099C7.83097 5.01295 8.40326 5.25 9 5.25C9.59674 5.25 10.169 5.01295 10.591 4.59099C11.0129 4.16903 11.25 3.59674 11.25 3Z" stroke="white" stroke-linecap="round" stroke-linejoin="round"/>
<path d="M8.09961 8.99993L9.29961 8.25V11.9249" stroke="white" stroke-linecap="round" stroke-linejoin="round"/>
</svg>