<svg xmlns="http://www.w3.org/2000/svg" width="26" height="26" viewBox="0 0 26 26" fill="none">
    <g clipPath="url(#clip0_1227_27312)">
    <path d="M8.66669 7.58333C8.66669 8.73261 9.12323 9.83481 9.93589 10.6475C10.7485 11.4601 11.8507 11.9167 13 11.9167C14.1493 11.9167 15.2515 11.4601 16.0642 10.6475C16.8768 9.83481 17.3334 8.73261 17.3334 7.58333C17.3334 6.43406 16.8768 5.33186 16.0642 4.5192C15.2515 3.70655 14.1493 3.25 13 3.25C11.8507 3.25 10.7485 3.70655 9.93589 4.5192C9.12323 5.33186 8.66669 6.43406 8.66669 7.58333Z" stroke="#54565A" strokwWidth="1.5" strokeLineCap="round" strokeLinejoin="round"/>
    <path d="M6.5 22.75V20.5833C6.5 19.4341 6.95655 18.3319 7.7692 17.5192C8.58186 16.7065 9.68406 16.25 10.8333 16.25H15.1667C16.3159 16.25 17.4181 16.7065 18.2308 17.5192C19.0435 18.3319 19.5 19.4341 19.5 20.5833V22.75" stroke="#54565A" strokwWidth="1.5" strokeLineCap="round" strokeLinejoin="round"/>
    </g>
    <defs>
    <clipPath id="clip0_1227_27312">
    <rect width="26" height="26" fill="#54565A"/>
    </clipPath>
    </defs>
</svg>