<svg xmlns="http://www.w3.org/2000/svg" width="18" height="18" viewBox="0 0 18 18" fill="none">
<path d="M7.49805 3.75C7.49805 4.14783 7.65608 4.52936 7.93739 4.81066C8.21869 5.09197 8.60022 5.25 8.99805 5.25C9.39587 5.25 9.7774 5.09197 10.0587 4.81066C10.34 4.52936 10.498 4.14783 10.498 3.75C10.498 3.35218 10.34 2.97064 10.0587 2.68934C9.7774 2.40804 9.39587 2.25 8.99805 2.25C8.60022 2.25 8.21869 2.40804 7.93739 2.68934C7.65608 2.97064 7.49805 3.35218 7.49805 3.75Z" stroke="white" stroke-linecap="round" stroke-linejoin="round"/>
<path d="M2.25 14.25C2.25 14.6478 2.40804 15.0294 2.68934 15.3107C2.97064 15.592 3.35218 15.75 3.75 15.75C4.14783 15.75 4.52936 15.592 4.81066 15.3107C5.09197 15.0294 5.25 14.6478 5.25 14.25C5.25 13.8522 5.09197 13.4706 4.81066 13.1893C4.52936 12.908 4.14783 12.75 3.75 12.75C3.35218 12.75 2.97064 12.908 2.68934 13.1893C2.40804 13.4706 2.25 13.8522 2.25 14.25Z" stroke="white" stroke-linecap="round" stroke-linejoin="round"/>
<path d="M12.75 14.25C12.75 14.6478 12.908 15.0294 13.1893 15.3107C13.4706 15.592 13.8522 15.75 14.25 15.75C14.6478 15.75 15.0294 15.592 15.3107 15.3107C15.592 15.0294 15.75 14.6478 15.75 14.25C15.75 13.8522 15.592 13.4706 15.3107 13.1893C15.0294 12.908 14.6478 12.75 14.25 12.75C13.8522 12.75 13.4706 12.908 13.1893 13.1893C12.908 13.4706 12.75 13.8522 12.75 14.25Z" stroke="white" stroke-linecap="round" stroke-linejoin="round"/>
<path d="M6.75 10.5C6.75 11.0967 6.98705 11.669 7.40901 12.091C7.83097 12.5129 8.40326 12.75 9 12.75C9.59674 12.75 10.169 12.5129 10.591 12.091C11.0129 11.669 11.25 11.0967 11.25 10.5C11.25 9.90326 11.0129 9.33097 10.591 8.90901C10.169 8.48705 9.59674 8.25 9 8.25C8.40326 8.25 7.83097 8.48705 7.40901 8.90901C6.98705 9.33097 6.75 9.90326 6.75 10.5Z" stroke="white" stroke-linecap="round" stroke-linejoin="round"/>
<path d="M9 5.25V8.25" stroke="white" stroke-linecap="round" stroke-linejoin="round"/>
<path d="M5.02539 13.3516L7.12539 11.8516" stroke="white" stroke-linecap="round" stroke-linejoin="round"/>
<path d="M12.973 13.3516L10.873 11.8516" stroke="white" stroke-linecap="round" stroke-linejoin="round"/>
</svg>