<svg width="71" height="71" viewBox="0 0 71 71" fill="none" xmlns="http://www.w3.org/2000/svg">
<path d="M9.74594 34.7678C8.19836 32.5435 7.57711 30.4468 9.09141 29.1765C10.3727 28.1005 12.2587 27.8952 14.5884 30.5855C14.5884 30.5855 21.5497 38.6728 23.9459 40.9193C24.4895 41.424 25.1663 41.5017 25.782 40.8638C26.3034 40.3202 26.1148 39.8487 25.671 39.1998C25.671 39.1998 15.8586 24.6115 14.5717 22.8309C12.4251 19.8523 13.2516 17.9275 14.2445 17.0123C15.6256 15.7309 18.0552 15.4758 20.3127 18.5709L32.1941 34.4738C32.5547 34.8565 33.1371 34.912 33.5642 34.6125L33.7306 34.496C34.1688 34.1854 34.2964 33.5919 34.0302 33.1259C31.9501 29.5038 23.6741 15.0708 22.4594 12.4416C21.0616 9.40749 21.6606 7.86546 23.1416 6.97241C24.9 5.91296 26.553 5.99061 28.5277 8.92491C30.6688 12.1199 38.9835 25.5711 41.0969 29.1876C41.3742 29.6591 41.9677 29.8366 42.4559 29.5981C42.4614 29.5926 42.4725 29.5926 42.478 29.587C42.944 29.3596 43.3655 28.8992 43.1714 28.2447C42.0177 24.4395 36.3543 12.5914 35.1673 9.86788C33.542 6.14593 34.3352 4.88124 36.0159 4.02702C37.7798 3.13397 39.6159 3.83842 40.8639 6.32342C41.707 8.00967 56.5116 34.9508 56.5116 34.9508C56.2953 30.9349 57.3104 28.0894 58.1757 25.2327C59.751 20.0353 63.5617 17.334 66.3241 18.5487C67.7607 19.1811 68.0214 20.4402 67.8661 21.4054C67.5555 23.2802 66.2353 29.0878 65.9802 33.6362C65.3811 44.2973 68.6038 56.5837 56.5948 64.3049C48.5574 69.4746 39.9431 68.5649 34.252 64.5878C27.3517 59.7676 11.0106 36.5872 9.74594 34.7678Z" fill="#FFCA28"/>
<path d="M65.2757 28.7161C64.2718 32.9373 64.1386 38.1181 64.1719 40.3258C64.3051 48.929 64.2607 56.3729 55.6353 63.1733C54.5758 64.0109 51.2532 66.0522 47.3871 67.1172C46.1446 67.4555 46.6161 67.8549 47.3815 67.7661C51.6027 67.278 54.8033 65.4587 56.5838 64.3104C68.5872 56.5892 65.6363 44.3861 66.2354 33.725C66.4905 29.1765 67.8772 22.0211 67.8551 21.4054C67.8273 20.7897 66.2797 24.495 65.2757 28.7161ZM43.005 29.1599C43.005 29.1599 42.1453 29.1654 41.3299 28.0283C38.8837 24.6281 31.2124 11.7871 29.0047 8.63646C26.4865 5.04209 24.1401 6.41771 23.6076 6.70615C23.6076 6.70615 25.5379 6.77271 26.6029 8.35357C28.7773 11.5763 37.02 26.0204 39.6215 29.1211C41.3022 31.1235 43.005 29.1599 43.005 29.1599ZM12.5971 30.2526C13.3515 31.0625 19.9744 38.9224 22.415 41.1134C24.5118 42.9938 26.076 40.5976 26.076 40.5976C26.076 40.5976 25.305 40.7029 24.2511 39.9097C21.6329 37.9295 15.4315 30.8683 14.0337 29.3818C11.9592 27.1741 10.0289 28.5553 9.61841 28.8049C9.62396 28.8049 10.811 28.3445 12.5971 30.2526ZM34.1633 33.9801C34.1633 33.9801 33.4533 34.496 32.1498 32.9706C31.2013 31.8557 20.3128 18.5709 20.3128 18.5709C17.5837 15.2372 15.4371 16.2301 14.9933 16.4853C14.9933 16.4853 16.3634 16.4132 17.9665 18.2603C18.6986 19.1034 30.3193 33.9191 30.7853 34.4239C32.4882 36.2821 34.0635 34.6846 34.1633 33.9801Z" fill="#EDA600"/>
<path d="M56.4671 32.0776C56.4671 32.0776 42.0397 7.88769 41.1189 6.24027C39.0721 2.58488 36.6925 3.70535 36.2876 3.88839C36.2876 3.88839 37.6133 3.51121 39.172 6.16261C40.004 7.57152 50.6041 26.6306 53.9877 32.7211C54.2539 33.8582 54.2317 35.3392 53.3775 36.2932C50.3156 39.7268 46.4106 43.2324 47.5588 51.9243C47.8473 54.1264 48.6627 56.2121 49.2673 57.2161C50.0328 58.4752 50.9147 57.9982 50.5264 57.0552C50.2657 56.4173 49.8497 54.9141 49.7665 54.2707C49.3782 51.2753 48.0692 46.0391 53.9378 39.76C54.9306 38.7117 57.4545 35.5444 56.4671 32.0776Z" fill="#EDA600"/>
<path d="M57.4046 17.173C56.6336 14.4384 55.4355 11.9312 53.8824 9.75687C52.4845 7.79882 50.7928 6.11257 48.8624 4.75913C48.6184 4.58718 48.3078 4.05468 48.574 3.53882C48.8403 3.02296 49.4171 3.08952 49.6335 3.17827C52.0463 4.17116 54.021 5.88515 55.6518 8.23702C57.5877 11.0326 58.5473 13.6674 59.041 16.6128C59.0964 16.9345 59.0853 17.6112 58.3975 17.7887C57.7153 17.9662 57.4823 17.4393 57.4046 17.173ZM53.6328 20.1073C52.8617 17.3727 51.6636 14.8655 50.1105 12.6912C48.7127 10.7331 47.0209 9.04687 45.0906 7.69343C44.8465 7.52148 44.5359 6.98898 44.8021 6.47312C45.0684 5.95171 45.6453 6.02382 45.8616 6.11257C48.2745 7.10546 50.2492 8.81944 51.8799 11.1713C53.8158 13.9669 54.7754 16.6017 55.2691 19.5471C55.3245 19.8688 55.3135 20.5455 54.6256 20.723C53.9489 20.9005 53.7104 20.3791 53.6328 20.1073ZM4.74814 42.966C5.70221 45.6451 7.06119 48.0636 8.75299 50.1326C10.2784 51.9908 12.0756 53.5661 14.0891 54.7919C14.3442 54.9473 14.6881 55.4576 14.4552 55.9901C14.2222 56.5281 13.6453 56.4948 13.4179 56.4227C10.944 55.5907 8.85838 54.0098 7.07783 51.7689C4.96447 49.1064 3.82736 46.5437 3.13955 43.6372C3.06189 43.3155 3.02861 42.6443 3.70533 42.4224C4.38205 42.2005 4.65385 42.7053 4.74814 42.966ZM8.31478 39.7877C9.26885 42.4668 10.6278 44.8852 12.3196 46.9542C13.845 48.8124 15.6422 50.3877 17.6557 51.6136C17.9109 51.7689 18.2548 52.2792 18.0218 52.8117C17.7888 53.3498 17.212 53.3165 16.9845 53.2444C14.5106 52.4123 12.425 50.8315 10.6445 48.5905C8.53111 45.928 7.394 43.3654 6.70619 40.4588C6.62853 40.1371 6.59525 39.4659 7.27197 39.2441C7.94869 39.0166 8.22049 39.5269 8.31478 39.7877Z" fill="#B0BEC5"/>
</svg>
