<svg xmlns="http://www.w3.org/2000/svg" width="21" height="20" viewBox="0 0 21 20" fill="none">
<g clip-path="url(#clip0_2291_132734)">
<path d="M1.5 6V14.5C1.5 15.163 1.76339 15.7989 2.23223 16.2678C2.70107 16.7366 3.33696 17 4 17H5.06C5.5098 16.9991 5.95365 16.8971 6.3587 16.7015C6.76374 16.5059 7.11962 16.2217 7.4 15.87L8.94 13.95C9.1274 13.7164 9.36487 13.5279 9.63488 13.3984C9.90488 13.2688 10.2005 13.2016 10.5 13.2016C10.7995 13.2016 11.0951 13.2688 11.3651 13.3984C11.6351 13.5279 11.8726 13.7164 12.06 13.95L13.6 15.87C13.8804 16.2217 14.2363 16.5059 14.6413 16.7015C15.0464 16.8971 15.4902 16.9991 15.94 17H17C17.663 17 18.2989 16.7366 18.7678 16.2678C19.2366 15.7989 19.5 15.163 19.5 14.5V6C19.5 5.46957 19.2893 4.96086 18.9142 4.58579C18.5391 4.21071 18.0304 4 17.5 4H3.5C2.96957 4 2.46086 4.21071 2.08579 4.58579C1.71071 4.96086 1.5 5.46957 1.5 6Z" stroke="white" stroke-width="1.5" stroke-linecap="round" stroke-linejoin="round"/>
<path d="M5.5 10C5.5 10.2652 5.60536 10.5196 5.79289 10.7071C5.98043 10.8946 6.23478 11 6.5 11C6.76522 11 7.01957 10.8946 7.20711 10.7071C7.39464 10.5196 7.5 10.2652 7.5 10C7.5 9.73478 7.39464 9.48043 7.20711 9.29289C7.01957 9.10536 6.76522 9 6.5 9C6.23478 9 5.98043 9.10536 5.79289 9.29289C5.60536 9.48043 5.5 9.73478 5.5 10Z" stroke="white" stroke-width="1.5" stroke-linecap="round" stroke-linejoin="round"/>
<path d="M13.5 10C13.5 10.2652 13.6054 10.5196 13.7929 10.7071C13.9804 10.8946 14.2348 11 14.5 11C14.7652 11 15.0196 10.8946 15.2071 10.7071C15.3946 10.5196 15.5 10.2652 15.5 10C15.5 9.73478 15.3946 9.48043 15.2071 9.29289C15.0196 9.10536 14.7652 9 14.5 9C14.2348 9 13.9804 9.10536 13.7929 9.29289C13.6054 9.48043 13.5 9.73478 13.5 10Z" stroke="white" stroke-width="1.5" stroke-linecap="round" stroke-linejoin="round"/>
</g>
<defs>
<clipPath id="clip0_2291_132734">
<rect width="20" height="20" fill="white" transform="translate(0.5)"/>
</clipPath>
</defs>
</svg>