<svg width="191" height="39" viewBox="0 0 191 39" fill="none" xmlns="http://www.w3.org/2000/svg">
<g filter="url(#filter0_d_1995_2798)">
<g clip-path="url(#clip0_1995_2798)">
<rect x="2.8916" y="2.09302" width="32.3584" height="32.3584" rx="6.67183" fill="url(#paint0_linear_1995_2798)"/>
<path d="M35.0467 31.3867V24.8928L26.088 9.50854L11.3516 18.0482L15.6661 25.5533L11.7506 27.827L15.6429 34.5957H31.8368C33.6008 34.5957 35.0351 33.1578 35.0351 31.3809L35.0467 31.3867Z" fill="url(#paint1_linear_1995_2798)"/>
<path fill-rule="evenodd" clip-rule="evenodd" d="M20.0922 17.1505L13.0042 20.9015L15.6909 22.3234L22.7117 18.4746L20.098 17.1505H20.0922Z" fill="#98A2B3"/>
<path fill-rule="evenodd" clip-rule="evenodd" d="M24.0538 20.7569L22.8391 18.6425C22.7275 18.4482 22.4792 18.3817 22.2854 18.4942L20.1788 19.7165L12.8106 23.9892C11.4572 24.7725 10.9888 26.5143 11.7695 27.8762L12.9841 29.9906C13.0957 30.1849 13.344 30.2514 13.5379 30.139L15.6445 28.9167L23.0127 24.6439C24.3661 23.8606 24.8345 22.1188 24.0538 20.7569Z" fill="#D0D5DD"/>
<path fill-rule="evenodd" clip-rule="evenodd" d="M26.1699 9.68643L24.6717 7.08047C24.5602 6.88642 24.3122 6.81987 24.1185 6.93197L21.52 8.43558L12.6827 13.5617C11.0575 14.5028 10.4966 16.5953 11.4393 18.2261L12.9375 20.8321C13.049 21.0261 13.297 21.0927 13.4907 20.9806L16.0892 19.477L24.9265 14.3508C26.5516 13.4097 27.1126 11.3172 26.1699 9.68643Z" fill="white"/>
</g>
</g>
<path d="M57.6601 21.1891L59.0549 23.9606C59.0549 23.9606 57.4503 25.2775 54.3293 25.2775C50.2665 25.2775 46.5352 21.9872 46.5352 17.8988C46.5352 13.8103 50.2498 10.4679 54.3293 10.4679C57.4503 10.4679 59.0549 11.7849 59.0549 11.7849L57.6601 14.5563C57.6601 14.5563 56.5086 13.6728 54.8348 13.6728C51.5397 13.6728 50.0924 15.9587 50.0924 17.8654C50.0924 19.7721 51.5397 22.0747 54.8348 22.0747C56.5086 22.0747 57.6601 21.1912 57.6601 21.1912V21.1891Z" fill="white"/>
<path d="M63.5883 25.0166H60.31V10.7258H63.5883V16.425H68.2258V10.7258H71.5041V25.0166H68.2258V19.284H63.5883V25.0166Z" fill="white"/>
<path d="M78.7373 10.7258C81.4053 10.7258 83.4272 12.1636 83.4272 14.9705C83.4272 17.1189 82.2421 18.5568 80.4803 19.1111L85.4324 25.0166H81.2647L76.8706 19.3694V25.0166H73.5922V10.7258H78.7352H78.7373ZM77.2544 17.0648C78.4919 17.0648 79.9748 16.9772 79.9748 15.1935C79.9748 13.4097 78.4919 13.3222 77.2544 13.3222H76.8706V17.0627H77.2544V17.0648Z" fill="white"/>
<path d="M92.684 10.4673C96.6776 10.4673 99.9202 13.6888 99.9202 17.8627C99.9202 22.0366 96.816 25.2769 92.684 25.2769C88.552 25.2769 85.431 22.0387 85.431 17.8627C85.431 13.6867 88.7261 10.4673 92.684 10.4673ZM92.684 22.1241C95.2995 22.1241 96.3797 19.9944 96.3797 17.8627C96.3797 15.731 95.2282 13.6013 92.684 13.6013C90.1398 13.6013 88.9694 15.731 88.9694 17.8627C88.9694 19.9944 89.9971 22.1241 92.684 22.1241Z" fill="white"/>
<path d="M104.642 25.0166H101.364V10.7258H104.642L110.36 19.5945H110.396V10.7258H113.674V25.0166H110.396L104.678 16.1479H104.642V25.0166Z" fill="white"/>
<path d="M126.82 19.9404C126.82 23.4746 124.868 25.275 121.205 25.275C117.543 25.275 115.59 23.4746 115.59 19.9404V10.7258H118.869V18.9881C118.869 21.3782 119.601 22.0722 121.205 22.0722C122.81 22.0722 123.542 21.3803 123.542 18.9881V10.7258H126.82V19.9404Z" fill="white"/>
<path d="M138.151 11.8176L136.826 14.4161C136.826 14.4161 135.395 13.4284 133.914 13.4284C132.799 13.4284 132.205 13.9306 132.205 14.71C132.205 15.4893 133.564 16.079 135.204 16.7709C136.809 17.446 138.569 18.7984 138.569 20.6676C138.569 24.0809 135.953 25.2749 133.147 25.2749C129.782 25.2749 127.742 23.387 127.742 23.387L129.38 20.6509C129.38 20.6509 131.297 22.2617 132.901 22.2617C133.617 22.2617 134.976 22.1929 134.976 20.8593C134.976 19.8195 133.44 19.3527 131.733 18.5025C130.007 17.6544 128.996 16.3208 128.996 14.8308C128.996 12.1635 131.366 10.4652 133.686 10.4652C136.301 10.4652 138.149 11.8155 138.149 11.8155L138.151 11.8176Z" fill="white"/>
<path d="M146.765 22.5046C146.051 22.5046 145.441 22.3737 144.937 22.1143C144.431 21.8548 143.982 21.4783 143.592 20.9847L144.428 20.1536C144.715 20.5508 145.048 20.8515 145.422 21.0559C145.797 21.2602 146.259 21.3612 146.806 21.3612C147.354 21.3612 147.779 21.2441 148.105 21.0099C148.431 20.7758 148.595 20.4566 148.595 20.0503C148.595 19.7128 148.517 19.4395 148.359 19.2329C148.202 19.0263 147.992 18.8541 147.726 18.7209C147.46 18.5878 147.172 18.4661 146.857 18.3582C146.543 18.2503 146.231 18.1332 145.917 18.0069C145.602 17.8806 145.316 17.7268 145.055 17.5385C144.794 17.3526 144.583 17.1092 144.422 16.8061C144.26 16.5031 144.179 16.122 144.179 15.6651C144.179 15.1554 144.304 14.7192 144.551 14.361C144.798 14.0028 145.138 13.725 145.57 13.5299C146.002 13.3347 146.488 13.2383 147.026 13.2383C147.618 13.2383 148.149 13.3531 148.621 13.5827C149.09 13.8123 149.473 14.113 149.769 14.485L148.933 15.3161C148.662 15.0039 148.373 14.772 148.064 14.6159C147.754 14.4597 147.4 14.3817 146.998 14.3817C146.511 14.3817 146.122 14.4873 145.836 14.6985C145.549 14.9097 145.404 15.2059 145.404 15.587C145.404 15.8901 145.485 16.1334 145.646 16.3194C145.808 16.5054 146.018 16.6638 146.28 16.7924C146.541 16.9232 146.83 17.0403 147.148 17.1482C147.467 17.2561 147.782 17.3755 148.096 17.5041C148.41 17.6327 148.697 17.798 148.958 17.9977C149.219 18.1975 149.429 18.4546 149.591 18.7691C149.753 19.086 149.834 19.4809 149.834 19.9561C149.834 20.7528 149.556 21.375 149.004 21.825C148.452 22.275 147.705 22.5 146.765 22.5V22.5046Z" fill="white"/>
<path d="M151.493 22.3733V13.3665H152.72V22.3733H151.493ZM152.316 18.8698V17.8068H154.784C155.124 17.8068 155.427 17.7379 155.692 17.6002C155.958 17.4624 156.166 17.2673 156.319 17.017C156.471 16.7667 156.547 16.4683 156.547 16.1216C156.547 15.7749 156.471 15.4764 156.319 15.2262C156.166 14.9759 155.958 14.7808 155.692 14.643C155.427 14.5053 155.124 14.4364 154.784 14.4364H152.316V13.3734H154.863C155.42 13.3734 155.919 13.4859 156.358 13.7109C156.797 13.9359 157.146 14.2527 157.402 14.6637C157.659 15.0747 157.788 15.5614 157.788 16.1239C157.788 16.6864 157.659 17.1593 157.402 17.5703C157.146 17.9813 156.797 18.3004 156.358 18.53C155.919 18.7596 155.42 18.8744 154.863 18.8744H152.316V18.8698Z" fill="white"/>
<path d="M163.536 22.5045C162.892 22.5045 162.291 22.3851 161.734 22.1487C161.177 21.9099 160.689 21.577 160.271 21.1499C159.853 20.7206 159.529 20.227 159.298 19.6645C159.067 19.102 158.951 18.5005 158.951 17.8599C158.951 17.2193 159.067 16.6086 159.298 16.0484C159.529 15.4905 159.85 14.9992 160.264 14.5768C160.678 14.152 161.161 13.8237 161.713 13.5895C162.265 13.3553 162.864 13.2383 163.509 13.2383C164.153 13.2383 164.752 13.3553 165.304 13.5895C165.856 13.8237 166.342 14.152 166.76 14.5768C167.178 15.0015 167.504 15.4928 167.74 16.0553C167.976 16.6178 168.093 17.2239 168.093 17.8714C168.093 18.5188 167.976 19.1135 167.74 19.676C167.504 20.2385 167.181 20.7321 166.767 21.1545C166.353 21.5793 165.87 21.9099 165.318 22.1464C164.766 22.3851 164.172 22.5022 163.534 22.5022L163.536 22.5045ZM163.511 21.3359C164.165 21.3359 164.736 21.1867 165.228 20.8882C165.72 20.5897 166.111 20.1788 166.397 19.6553C166.684 19.1318 166.829 18.5326 166.829 17.8576C166.829 17.3571 166.746 16.8956 166.582 16.4755C166.416 16.0553 166.187 15.6903 165.889 15.378C165.593 15.0658 165.244 14.827 164.844 14.6571C164.444 14.4895 163.998 14.4046 163.511 14.4046C162.866 14.4046 162.298 14.5515 161.805 14.8454C161.313 15.1393 160.925 15.5456 160.643 16.0645C160.359 16.5834 160.218 17.1803 160.218 17.8553C160.218 18.3581 160.299 18.8219 160.46 19.2512C160.622 19.6806 160.849 20.0479 161.14 20.3533C161.431 20.6609 161.78 20.8997 162.184 21.0742C162.589 21.2464 163.03 21.3336 163.511 21.3336V21.3359Z" fill="white"/>
<path d="M169.781 22.3733V13.3665H171.008V22.3733H169.781ZM170.604 18.4542V17.428H173.06C173.592 17.428 174.001 17.2948 174.287 17.0262C174.574 16.7576 174.719 16.3948 174.719 15.9356C174.719 15.504 174.579 15.1435 174.294 14.8589C174.012 14.5742 173.603 14.4295 173.074 14.4295H170.606V13.3665H173.113C173.689 13.3665 174.188 13.4767 174.615 13.6971C175.043 13.9175 175.371 14.2183 175.602 14.5994C175.833 14.9805 175.949 15.4168 175.949 15.9104C175.949 16.404 175.833 16.8655 175.602 17.2466C175.371 17.6277 175.043 17.9239 174.615 18.1351C174.188 18.3463 173.689 18.4519 173.113 18.4519H170.606L170.604 18.4542ZM175.006 22.3733L171.715 18.3371L172.878 17.9354L176.561 22.3733H175.006Z" fill="white"/>
<path d="M176.661 14.4852V13.3694H184.042V14.4852H176.661ZM179.744 22.3762V13.6288H180.971V22.3762H179.744Z" fill="white"/>
<path d="M187.465 22.5045C186.751 22.5045 186.141 22.3736 185.637 22.1142C185.131 21.8548 184.683 21.4782 184.292 20.9846L185.129 20.1535C185.415 20.5507 185.748 20.8515 186.123 21.0558C186.497 21.2601 186.959 21.3612 187.507 21.3612C188.055 21.3612 188.48 21.2441 188.806 21.0099C189.131 20.7757 189.296 20.4566 189.296 20.0502C189.296 19.7127 189.217 19.4395 189.06 19.2329C188.903 19.0262 188.692 18.854 188.427 18.7209C188.161 18.5877 187.872 18.466 187.558 18.3581C187.243 18.2502 186.931 18.1331 186.617 18.0068C186.303 17.8806 186.016 17.7267 185.755 17.5385C185.494 17.3525 185.284 17.1091 185.122 16.8061C184.96 16.503 184.879 16.1219 184.879 15.665C184.879 15.1553 185.004 14.7191 185.251 14.3609C185.499 14.0028 185.838 13.725 186.271 13.5298C186.703 13.3347 187.188 13.2383 187.726 13.2383C188.318 13.2383 188.85 13.353 189.321 13.5826C189.79 13.8122 190.174 14.113 190.47 14.4849L189.633 15.316C189.363 15.0038 189.074 14.7719 188.764 14.6158C188.454 14.4597 188.101 14.3816 187.699 14.3816C187.211 14.3816 186.823 14.4872 186.536 14.6984C186.25 14.9097 186.104 15.2058 186.104 15.587C186.104 15.89 186.185 16.1334 186.347 16.3194C186.509 16.5053 186.719 16.6637 186.98 16.7923C187.241 16.9232 187.53 17.0403 187.849 17.1482C188.168 17.2561 188.482 17.3755 188.796 17.504C189.111 17.6326 189.397 17.7979 189.658 17.9977C189.919 18.1974 190.13 18.4545 190.292 18.7691C190.453 19.0859 190.534 19.4808 190.534 19.9561C190.534 20.7527 190.257 21.3749 189.705 21.8249C189.152 22.2749 188.406 22.4999 187.465 22.4999V22.5045Z" fill="white"/>
<defs>
<filter id="filter0_d_1995_2798" x="0.347423" y="0.818906" width="37.4468" height="37.4468" filterUnits="userSpaceOnUse" color-interpolation-filters="sRGB">
<feFlood flood-opacity="0" result="BackgroundImageFix"/>
<feColorMatrix in="SourceAlpha" type="matrix" values="0 0 0 0 0 0 0 0 0 0 0 0 0 0 0 0 0 0 127 0" result="hardAlpha"/>
<feOffset dy="1.27007"/>
<feGaussianBlur stdDeviation="1.27209"/>
<feComposite in2="hardAlpha" operator="out"/>
<feColorMatrix type="matrix" values="0 0 0 0 0.317647 0 0 0 0 0.333333 0 0 0 0 0.352941 0 0 0 0.25 0"/>
<feBlend mode="normal" in2="BackgroundImageFix" result="effect1_dropShadow_1995_2798"/>
<feBlend mode="normal" in="SourceGraphic" in2="effect1_dropShadow_1995_2798" result="shape"/>
</filter>
<linearGradient id="paint0_linear_1995_2798" x1="19.0708" y1="2.09302" x2="19.0708" y2="34.4514" gradientUnits="userSpaceOnUse">
<stop stop-color="#164193"/>
<stop offset="1" stop-color="#102D69"/>
</linearGradient>
<linearGradient id="paint1_linear_1995_2798" x1="23.1991" y1="9.50854" x2="23.1991" y2="34.5957" gradientUnits="userSpaceOnUse">
<stop stop-color="#102D69" stop-opacity="0"/>
<stop offset="0.898177" stop-color="#102D69"/>
</linearGradient>
<clipPath id="clip0_1995_2798">
<rect x="2.8916" y="2.09302" width="32.3584" height="32.3584" rx="6.67183" fill="white"/>
</clipPath>
</defs>
</svg>
