<svg width="52" height="51" viewBox="0 0 52 51" fill="none" xmlns="http://www.w3.org/2000/svg">
<g filter="url(#filter0_d_1995_69259)">
<g clip-path="url(#clip0_1995_69259)">
<rect x="3.99982" y="2.12537" width="43.6554" height="43.6554" rx="9.00111" fill="url(#paint0_linear_1995_69259)"/>
<path d="M47.3808 41.6461V32.885L35.2944 12.1298L15.4132 23.6508L21.234 33.7761L15.9516 36.8437L21.2028 45.9753H43.0503C45.4301 45.9753 47.3652 44.0354 47.3652 41.6382L47.3808 41.6461Z" fill="url(#paint1_linear_1995_69259)"/>
<path fill-rule="evenodd" clip-rule="evenodd" d="M27.205 22.4399L17.6424 27.5004L21.2672 29.4188L30.739 24.2262L27.2129 22.4399H27.205Z" fill="#98A2B3"/>
<path fill-rule="evenodd" clip-rule="evenodd" d="M32.5498 27.3051L30.9111 24.4525C30.7605 24.1904 30.4255 24.1006 30.1641 24.2523L27.322 25.9014L17.3814 31.6659C15.5555 32.7226 14.9235 35.0725 15.9769 36.9099L17.6155 39.7624C17.7661 40.0246 18.1011 40.1143 18.3625 39.9626L21.2046 38.3136L31.1453 32.5491C32.9711 31.4924 33.6031 29.1424 32.5498 27.3051Z" fill="#D0D5DD"/>
<path fill-rule="evenodd" clip-rule="evenodd" d="M35.4048 12.3696L33.3836 8.85384C33.2331 8.59204 32.8986 8.50226 32.6372 8.6535L29.1315 10.6821L17.209 17.5978C15.0164 18.8674 14.2596 21.6905 15.5314 23.8907L17.5527 27.4064C17.7032 27.6682 18.0377 27.758 18.2991 27.6068L21.8048 25.5782L33.7273 18.6624C35.9198 17.3928 36.6767 14.5697 35.4048 12.3696Z" fill="white"/>
</g>
</g>
<defs>
<filter id="filter0_d_1995_69259" x="0.567411" y="0.406435" width="50.5202" height="50.5202" filterUnits="userSpaceOnUse" color-interpolation-filters="sRGB">
<feFlood flood-opacity="0" result="BackgroundImageFix"/>
<feColorMatrix in="SourceAlpha" type="matrix" values="0 0 0 0 0 0 0 0 0 0 0 0 0 0 0 0 0 0 127 0" result="hardAlpha"/>
<feOffset dy="1.71347"/>
<feGaussianBlur stdDeviation="1.7162"/>
<feComposite in2="hardAlpha" operator="out"/>
<feColorMatrix type="matrix" values="0 0 0 0 0.317647 0 0 0 0 0.333333 0 0 0 0 0.352941 0 0 0 0.25 0"/>
<feBlend mode="normal" in2="BackgroundImageFix" result="effect1_dropShadow_1995_69259"/>
<feBlend mode="normal" in="SourceGraphic" in2="effect1_dropShadow_1995_69259" result="shape"/>
</filter>
<linearGradient id="paint0_linear_1995_69259" x1="25.8275" y1="2.12537" x2="25.8275" y2="45.7808" gradientUnits="userSpaceOnUse">
<stop stop-color="#164193"/>
<stop offset="1" stop-color="#102D69"/>
</linearGradient>
<linearGradient id="paint1_linear_1995_69259" x1="31.397" y1="12.1298" x2="31.397" y2="45.9753" gradientUnits="userSpaceOnUse">
<stop stop-color="#102D69" stop-opacity="0"/>
<stop offset="0.898177" stop-color="#102D69"/>
</linearGradient>
<clipPath id="clip0_1995_69259">
<rect x="3.99982" y="2.12537" width="43.6554" height="43.6554" rx="9.00111" fill="white"/>
</clipPath>
</defs>
</svg>
